<svg xmlns="http://www.w3.org/2000/svg" viewBox="0 0 109.86 67.65"><defs><style>.cls-1{fill-rule:evenodd;}</style></defs><title>frank-logo</title><g id="Layer_2" data-name="Layer 2"><g id="Layer_1-2" data-name="Layer 1"><path class="cls-1" d="M75.22,24.61a.33.33,0,0,1,.29.18,2.09,2.09,0,0,0,.48.76.35.35,0,0,0,.31.12c.06,0,.14,0,.18,0a.43.43,0,0,0,.2-.29A.93.93,0,0,1,76.8,25a2,2,0,0,0,.19-.31.75.75,0,0,0,0-.53,1.82,1.82,0,0,0-.16-.31.82.82,0,0,1-.13-.52,1.13,1.13,0,0,1,.18-.68l.09-.16c0-.18,0-.36,0-.54a1,1,0,0,0-.16-.68.94.94,0,0,1-.13-.52c0-.12,0-.24,0-.36a.73.73,0,0,1,.15-.5,1.18,1.18,0,0,0,.15-.86,2,2,0,0,1,0-.54c0-.36,0-.72,0-1.08-.1-.78,0-1.57-.07-2.35a1.11,1.11,0,0,0-.07-.16,1.93,1.93,0,0,1-.25-.67,1.31,1.31,0,0,0-.18-.5.64.64,0,0,1,0-.68,1.15,1.15,0,0,0,.21-.86,4.33,4.33,0,0,1,0-.72,1.58,1.58,0,0,1,.12-.52l.15-.33c0-.1-.1-.21-.16-.32a1.06,1.06,0,0,1-.09-.35,9.79,9.79,0,0,0-.07-1.08l-.24-.48c0-.42,0-.85,0-1.27a1.18,1.18,0,0,1,.18-.68A1,1,0,0,0,76.67,6V5.59a.93.93,0,0,0-.13-.51,3.24,3.24,0,0,1-.17-.32c0-.18,0-.36,0-.54s0-.32.19-.67a.41.41,0,0,0-.21-.69l0,0a.37.37,0,0,1,.31-.36A.71.71,0,0,0,77,2.39a1.43,1.43,0,0,1,.3-.2c.11,0,.23-.07.34-.11L77.78,2a1.07,1.07,0,0,1,.68-.12.43.43,0,0,1,.39.3c.15.34.18.34.49.06L79.61,2a.68.68,0,0,1,.33-.13l1.07,0a1.51,1.51,0,0,0,.83-.26A.53.53,0,0,1,82,1.49a1,1,0,0,1,.69.08l.15.1c.25.2.31.26.14.58a1.61,1.61,0,0,0-.13,1,.46.46,0,0,0,.36.34l0,0a1.18,1.18,0,0,1-.12.69c-.06.11-.11.22-.17.32l0,.36c0,.06,0,.12,0,.19s-.19.3-.27.46a.67.67,0,0,0-.06.52c0,.11.09.22.14.33s.1.19,0,.48a.47.47,0,0,0,0,.51,1.35,1.35,0,0,1,.2.68c0,.18,0,.36,0,.54,0,.61,0,.67-.51.38a.43.43,0,0,0-.34.06c-.1.07-.06.17,0,.29a9.17,9.17,0,0,0,.7.82.44.44,0,0,1,.12.33,1.59,1.59,0,0,1-.08.53c0,.11-.09.22-.14.32s.11.22.15.33a1.06,1.06,0,0,1,0,.87l-.09.16a.47.47,0,0,0,0,.51,1.09,1.09,0,0,1,.17.68.92.92,0,0,1-.17.51c-.14.2-.28.39-.43.58a1.91,1.91,0,0,0-.1.34.51.51,0,0,0,.08.34s.08.09.11.14l.2.3c0,.63-.07.49.25,1a1.65,1.65,0,0,0-.22.87v.54a1,1,0,0,0,.13.51c.17.26.22.56.38.82a.85.85,0,0,1,.15.51c0,1.5,0,3,0,4.51,0,.14-.06.22-.16.25l-.17-.07a4.59,4.59,0,0,1-.39-.37.56.56,0,0,0-.31-.17l0,0a.34.34,0,0,0-.16-.25.11.11,0,0,0-.11,0,.35.35,0,0,0-.13.26l0-.05a3.23,3.23,0,0,0-.76,0,1.38,1.38,0,0,1,.2-.68,1.28,1.28,0,0,0,.2-.5c0-.05,0-.1.07-.15a.27.27,0,0,1,.32-.12.64.64,0,0,0,.36,0,.45.45,0,0,0,.27-.2c0-.05,0-.12,0-.18a.31.31,0,0,0-.18-.29c-.11-.05-.22-.08-.33-.14s-.08-.08-.13-.12a.79.79,0,0,0-.13-.33c-.08-.09-.08-.09-.46.09l-.16-.08a.88.88,0,0,1-.25-.26c-.06-.1-.1-.22-.16-.32a.45.45,0,0,0-.41-.29c-.12,0-.24,0-.36,0h-.18a.34.34,0,0,0-.32.14c0,.09.07.16.21.2a.34.34,0,0,1,.25.21.32.32,0,0,1-.3.17.85.85,0,0,0-.54.44c-.06.12,0,.13.24.42a9.47,9.47,0,0,1,.86.93c.11.14.11.25,0,.47a.76.76,0,0,0-.11.14c-.26.32-.26.32-.12.4a1,1,0,0,0,.52.11l.72,0L81,25.1l-.09.15c-.25.38-.25.39,0,.8,0,.06.06.11.08.16a.83.83,0,0,1,0,.35.47.47,0,0,1-.31.16c-.33.05-.48.32-.64.57a.82.82,0,0,0,0,.35,2.21,2.21,0,0,1,.28.65.52.52,0,0,0,.18.3c.18.17.36.32.54.48a1.31,1.31,0,0,0,.46.26c.16,0,.19.13.11.24A1.06,1.06,0,0,1,81,30a1,1,0,0,0-.43.31,1.14,1.14,0,0,0-.33.8.41.41,0,0,1-.33.36.25.25,0,0,0-.09-.27c-.11-.05-.18,0-.14.11s.15.12.27.12c.07.27.12.31.4.34l.3,0h0a1.11,1.11,0,0,0,.07.16.44.44,0,0,0,.47.14.4.4,0,0,0,.17-.3c0-.21,0-.28-.14-.68-.08-.13-.08-.23,0-.3l.16-.07a.55.55,0,0,1,.18,0,.84.84,0,0,0,.64-.26.35.35,0,0,1,.33-.07.34.34,0,0,1,.17.55,7.48,7.48,0,0,0-.55.71.53.53,0,0,0,0,.18.45.45,0,0,0,0,.16c.28.54.28.54,0,1a.54.54,0,0,0,.05.65l.38.38a.46.46,0,0,1,.13.33c0,1.07,0,2.15,0,3.22a.64.64,0,0,1-.12.34,1.09,1.09,0,0,0-.08.15.44.44,0,0,0,0,.51,1.56,1.56,0,0,1,.21.85,1.58,1.58,0,0,1-.21.85.67.67,0,0,0,0,.52c.13.24.12.26,0,.48a1.15,1.15,0,0,0-.14.51,16.11,16.11,0,0,1,0,2.69,1,1,0,0,1,0,.16.28.28,0,0,1-.29.16h-.36a.55.55,0,0,1-.17,0,.3.3,0,0,1-.18-.28.41.41,0,0,0,.3-.12.34.34,0,0,0,.1-.31c0-.11,0-.23,0-.33s-.13-.19-.2-.16-.08.08-.11.12a3.93,3.93,0,0,0,0,.84h-.33c-.27,0-.35.06-.45.37l0,0a2.74,2.74,0,0,1-.7,0c-.23,0-.31.12-.4.26a.66.66,0,0,1-.47.47.51.51,0,0,0-.28.42.77.77,0,0,0,.13.49,4.64,4.64,0,0,0,.36.4c.21.23.23.27.23.45a.67.67,0,0,1-.1.33c-.16.25-.18.25,0,.47a.24.24,0,0,1,0,.32.91.91,0,0,1-.39.34l-.88.05a.51.51,0,0,0-.1-.32,2.62,2.62,0,0,0-.22-.25.21.21,0,0,0-.28,0,.24.24,0,0,0-.07.3.31.31,0,0,0,.21.22,1.41,1.41,0,0,0,.5,0,.5.5,0,0,0,.12.32c.17.22.16.23,0,.44s-.09.27.16.36.38.23.37.53a2,2,0,0,1,0,.35.85.85,0,0,1-.69.51c-.24,0-.31-.09-.27-.34a.47.47,0,0,1,0-.17,3.24,3.24,0,0,1,.17-.32.3.3,0,0,0-.25-.2,3,3,0,0,0-1.08,0,.46.46,0,0,0-.28.19l.08.16a1,1,0,0,0,.57.42.73.73,0,0,1,.3.19c.06.07,0,.29-.12.51a.8.8,0,0,0-.08.16l.15.32c0,.18-.17.29-.24.45a1,1,0,0,0,0,.17l0,0a.45.45,0,0,0-.38.31c0,.28-.2.42-.36.58s-.2.14-.25,0a.37.37,0,0,1,0-.17c0-.18,0-.36,0-.54s0-.24,0-.36a1.32,1.32,0,0,0-.16-.51,1.49,1.49,0,0,1-.25-.85,1,1,0,0,1,0-.35,1.92,1.92,0,0,1,.27-.46.8.8,0,0,0,0-.69q-.09-.24-.27-.09c-.27.12-.32.1-.36-.1,0,0,0-.11,0-.17a1.59,1.59,0,0,0-.24-.67.82.82,0,0,1-.12-.34,7.43,7.43,0,0,1,0-1.25.7.7,0,0,1,.18-.49s.1-.09.11-.15-.05-.18-.16-.27a1.2,1.2,0,0,1-.45-1.11.83.83,0,0,0-.32-.79l-.12-.13c-.2-.22-.22-.26-.12-.46a1.19,1.19,0,0,0,.08-.16,2.53,2.53,0,0,1-.23-.67,1.11,1.11,0,0,0-.08-.35,1.83,1.83,0,0,0-.18-.3.73.73,0,0,1-.12-.34c0-.18,0-.36,0-.54a1.1,1.1,0,0,0-.13-.51,1.7,1.7,0,0,1-.18-.69,1.1,1.1,0,0,1,0-.18,3,3,0,0,1-.41-.79.83.83,0,0,0-.09-.16,1.47,1.47,0,0,1-.24-.66,1,1,0,0,0-.12-.34c-.13-.27-.13-.33,0-.48a.66.66,0,0,1,.43-.29.37.37,0,0,1,.18,0,3.1,3.1,0,0,1,.47.26.54.54,0,0,0,.49-.12l.24-.27a.68.68,0,0,1,.45-.28,1.31,1.31,0,0,0,.46-.26.84.84,0,0,0,.33-.79,1.05,1.05,0,0,0,.5-.07.47.47,0,0,0,.18-.45.41.41,0,0,0-.22-.23,1.67,1.67,0,0,0-.5,0,.35.35,0,0,0-.15.07c-.09.07-.09.16,0,.28a.71.71,0,0,1,.13.31,1,1,0,0,0-.8.29,4.48,4.48,0,0,1-.4.36.67.67,0,0,1-.14.09l-.54,0-.46.23a1.48,1.48,0,0,0-.46-.25c-.36-.09-.44-.35-.45-.66s0-.36,0-.54a.83.83,0,0,0-.07-.34.45.45,0,0,0-.25-.24.55.55,0,0,1-.36-.54,1.9,1.9,0,0,0-.06-.71c-.06-.09-.11-.2-.18-.29a.84.84,0,0,1-.15-.5v-.54l0,.05a1.35,1.35,0,0,1,.35,0,.32.32,0,0,1,.3.15c.23.16.28.18.46.06a3.3,3.3,0,0,1,.45-.26c.06,0,.09-.07.14-.11a.48.48,0,0,0-.12-.3.45.45,0,0,0-.11-.13A7.21,7.21,0,0,1,71.7,31a1.26,1.26,0,0,0-.28-.19.92.92,0,0,0-.18.3c-.11.28-.11.28-.35.33l0,0a.53.53,0,0,0-.15-.31,6.42,6.42,0,0,1-.81-.91.53.53,0,0,1,0-.49A.8.8,0,0,0,70,29.6l.08-.15a3.2,3.2,0,0,0-.42-.55c-.16-.2-.12-.26.18-.31l.35-.05a.28.28,0,0,0,.14.29l.1-.09a.32.32,0,0,0-.28-.16.29.29,0,0,0-.16-.29l-.16-.07h-.18c-.36-.06-.41-.09-.53-.39s-.24-.42-.32-.64a.38.38,0,0,1,0-.18c0-.17-.06-.36.12-.49a1.15,1.15,0,0,1,.32-.14.35.35,0,0,0,.1-.58.65.65,0,0,0-.15-.1,1.67,1.67,0,0,1-.46-.28.6.6,0,0,1,.07-1,1,1,0,0,1,.16-.06.72.72,0,0,1,.11.15.86.86,0,0,0,.28.44l.36.05c.33,0,.41.1.5.4s.14.31.35.31a3.14,3.14,0,0,0,0,.75.28.28,0,0,0-.28.14l.09.1a.26.26,0,0,0,.15-.28.45.45,0,0,1,.35.35c0,.06,0,.12,0,.17a.32.32,0,0,0,.28.18.33.33,0,0,0,.31-.13.44.44,0,0,0-.06-.49l-.6-.66a.33.33,0,0,0-.31-.12.48.48,0,0,1,0-.17c.16-.17.34-.33.49-.51a.88.88,0,0,0,.18-.84,1.11,1.11,0,0,0-.07-.16l-.19-.3a.6.6,0,0,1,.47-.17c.23,0,.47,0,.71,0a4.9,4.9,0,0,0,.54,0,.31.31,0,0,0,.13.31.39.39,0,0,0,.15.06.28.28,0,0,0,.31-.15c0-.11-.11-.16-.24-.19a1.45,1.45,0,0,0-.36,0,.44.44,0,0,0-.11-.33c-.16-.18-.36-.31-.52-.48a.75.75,0,0,0-.64-.26,1,1,0,0,1-.64-.26c-.24-.17-.34-.16-.64,0a2.09,2.09,0,0,1-.48.22.37.37,0,0,0-.21.26.54.54,0,0,0,0,.18,4.29,4.29,0,0,1-.08.71.37.37,0,0,1-.27.2.24.24,0,0,1-.3-.13l-.08-.16c-.17-.32-.27-.27-.52,0a.77.77,0,0,0-.22.48,1,1,0,0,1-.19.68c-.09.15-.15.32-.25.47s-.08.06-.12.09a3.14,3.14,0,0,0-.31-.18.59.59,0,0,0-.35,0,.35.35,0,0,0-.13.11.4.4,0,0,0,0,.34.38.38,0,0,0,.28.19l.35.07a.38.38,0,0,1,.32.37.87.87,0,0,1-.06.52,2.71,2.71,0,0,0-.22.49,1.29,1.29,0,0,1-.35.61l-.24.27a.68.68,0,0,0-.15.5.36.36,0,0,0,.13.32c.07.05.18,0,.29-.08a.4.4,0,0,1,.33-.11l0,0a.92.92,0,0,0,.14.32.75.75,0,0,1,.17.51v.71c-.06.12-.1.24-.16.34a.85.85,0,0,0-.11.34c0,.3,0,.6,0,.9s0,.6,0,.9c0,1,0,1.93,0,2.89s0,1.93,0,2.9a1.82,1.82,0,0,1-.25.85.36.36,0,0,0,.25.21.48.48,0,0,1,.32.39c0,.12,0,.24,0,.36,0,.48,0,1,.05,1.45a1.85,1.85,0,0,0,.21.86,2.33,2.33,0,0,0-.14.33.63.63,0,0,0,0,.52c.13.24.13.26,0,.49a.71.71,0,0,0,0,.68,1.24,1.24,0,0,1,0,1c0,.06,0,.11-.07.16a.7.7,0,0,0-.06.17c0,.18,0,.37,0,.55,0,.6,0,1.2,0,1.8a1.12,1.12,0,0,0,.15.51,1.72,1.72,0,0,1,.24.49,3.6,3.6,0,0,0,.23.49,1,1,0,0,1,.08.35q0,.63,0,1.26a.63.63,0,0,1-.12.33,2.21,2.21,0,0,1-1,.78c-.16.06-.32.17-.48.25a.52.52,0,0,1-.16.06.57.57,0,0,1-.18,0,5.41,5.41,0,0,1-.9,0,.65.65,0,0,1-.34-.1,6.49,6.49,0,0,0-.64-.33A2.74,2.74,0,0,0,63.9,52a3.26,3.26,0,0,0-.48-.27l-.49-.22a.87.87,0,0,0-.5-.17l-.72,0c-1.21,0-2.41,0-3.62,0s-2.65,0-4,0a1.06,1.06,0,0,1-.52-.13,2.39,2.39,0,0,0-.32-.16,2.25,2.25,0,0,1-.81-.39.71.71,0,0,1-.36-.38c-.09-.22-.21-.43-.32-.64a.94.94,0,0,1,.05-.7,2,2,0,0,0,.28-.46,1,1,0,0,1,.2-.3c.23-.28.48-.54.69-.83a.69.69,0,0,0,.14-.33,10.08,10.08,0,0,0,0-2,1,1,0,0,0-.16-.51,2.23,2.23,0,0,1-.19-.51,1.71,1.71,0,0,0-.24-.67.69.69,0,0,1-.09-.34c0-.36,0-.72,0-1.09,0-.18,0-.36,0-.54a.78.78,0,0,0-.2-.49.79.79,0,0,0-.58-.38,2.43,2.43,0,0,1-.85-.25.53.53,0,0,0-.35,0l-.16.08a.69.69,0,0,1-.68,0l-.35-.16H48.05l-.69.32a1.09,1.09,0,0,0-.31.18,7.56,7.56,0,0,0-.67.6,1.87,1.87,0,0,0-.5.74,4,4,0,0,0-.37.82l-.27.46a2.66,2.66,0,0,1-.23.88.46.46,0,0,0-.07.16,1.16,1.16,0,0,0,0,.18c0,.9-.07,1.8-.09,2.71,0,.12,0,.24,0,.36a.79.79,0,0,0,.1.34,3.82,3.82,0,0,1,.32.64c.07.17.2.31.27.47a4.37,4.37,0,0,0,.23.49,1.66,1.66,0,0,1,.19.69.85.85,0,0,0,.11.34c.13.26.12.28,0,.46a5,5,0,0,1-.52.51.54.54,0,0,1-.32.13l-.18,0c-1.33,0-2.65,0-4,0l-1.44,0a1,1,0,0,0-.51.16,1.82,1.82,0,0,1-.51.18,1.61,1.61,0,0,0-.66.26.82.82,0,0,1-.35.09c-.54,0-1.08,0-1.62,0a.68.68,0,0,0-.34.11,1.69,1.69,0,0,1-.49.23,4.3,4.3,0,0,0-.48.24.22.22,0,0,1-.16,0,.86.86,0,0,1-.48-.51.5.5,0,0,0-.12-.33l-.25-.26a1.12,1.12,0,0,1-.34-.62,1,1,0,0,0-.16-.32,1.27,1.27,0,0,1-.19-.5,1.6,1.6,0,0,0-.24-.67.73.73,0,0,1-.09-.35A14.28,14.28,0,0,0,32.51,48a3.12,3.12,0,0,1-.36-.81c0-.06-.06-.1-.09-.16l-.17-.32-.09-.89a2.27,2.27,0,0,1-.3-.85.82.82,0,0,0-.09-.34c-.06-.11-.12-.21-.17-.32a1,1,0,0,1-.11-.34,4.35,4.35,0,0,1,0-.72,1.66,1.66,0,0,0-.19-.69.87.87,0,0,1-.07-.17c0-.9,0-1.8,0-2.71a1,1,0,0,0-.14-.51,1.29,1.29,0,0,1-.09-.16,1.05,1.05,0,0,1-.16-.51c0-.36,0-.72,0-1.08a1.15,1.15,0,0,0-.14-.52,1.54,1.54,0,0,1-.14-.52c0-.42,0-.84-.06-1.26a.87.87,0,0,0-.12-.34c-.18-.24-.22-.56-.4-.8s-.18-.45-.32-.65a1.55,1.55,0,0,1-.25-.67.72.72,0,0,0-.11-.34,2.16,2.16,0,0,1-.24-.48,1.11,1.11,0,0,0-.28-.45.69.69,0,0,0-.29-.2,1.29,1.29,0,0,0-.16.09,1.33,1.33,0,0,0-.5.5,1.13,1.13,0,0,0-.19.5c0,.48,0,1,0,1.44,0,2.11,0,4.22,0,6.33,0,1.08,0,2.17,0,3.25s0,2.17,0,3.26a4.54,4.54,0,0,0,.06.9,2.38,2.38,0,0,0,.17.31,1.52,1.52,0,0,1,.16.51c0,.12,0,.24,0,.36,0,1.21,0,2.41,0,3.62a.87.87,0,0,1-.15.51,5.11,5.11,0,0,0-.28.46,1.48,1.48,0,0,1-.64.62l-.16.07a6.22,6.22,0,0,0-.56.46,2.71,2.71,0,0,1-.88.62,3.06,3.06,0,0,0-.29.21,2.75,2.75,0,0,1-.59.42c-.22.09-.41.24-.63.34a2.8,2.8,0,0,0-.77.47,1.81,1.81,0,0,1-.62.35.48.48,0,0,0-.16.08,1.32,1.32,0,0,1-.67.24.89.89,0,0,0-.49.2.4.4,0,0,1-.16.08,1.05,1.05,0,0,1-.7,0,.88.88,0,0,1-.3-.2.62.62,0,0,1-.25-.46,5.78,5.78,0,0,0,0-.72,2,2,0,0,1,0-.54.67.67,0,0,1,.09-.34c.18-.32.27-.67.46-1a1.23,1.23,0,0,0,.14-.52c0-.66,0-1.32,0-2s0-1.08,0-1.62a1,1,0,0,1,.16-.51,1.32,1.32,0,0,0,.16-.51,2,2,0,0,1,.25-.67.54.54,0,0,0,0-.52l-.09-.16a1.48,1.48,0,0,1-.15-.69,1.31,1.31,0,0,1,.16-.7l.09-.15a1,1,0,0,0,.1-.34,4.84,4.84,0,0,0,0-1.26,3.38,3.38,0,0,0-.09-.54,1.24,1.24,0,0,0-.17-.32.65.65,0,0,1-.1-.34,1.09,1.09,0,0,1,0-.18c0-1.08,0-2.17,0-3.25a1.34,1.34,0,0,1,.14-.52,1,1,0,0,0,.12-.51c0-1.87,0-3.74,0-5.61,0-1.5,0-3,.05-4.51a.85.85,0,0,1,.17-.51,1.46,1.46,0,0,0,.17-.87,1.49,1.49,0,0,0-.23-.67,1.06,1.06,0,0,1-.13-.52,3.25,3.25,0,0,1,0-.54c0-.73,0-1.45,0-2.17s0-1.45,0-2.17a.61.61,0,0,1,.14-.33,3,3,0,0,1,.25-.26c.28-.3.27-.36-.07-.48s-.3-.18-.32-.37a4.33,4.33,0,0,1,0-.72.47.47,0,0,1,0-.17.29.29,0,0,1,.27-.2.23.23,0,0,0,.1.27c.11.05.17,0,.13-.12a.24.24,0,0,0-.27-.1.73.73,0,0,1,.25-.46.47.47,0,0,0,0-.51,3.14,3.14,0,0,0-.18-.31,1.82,1.82,0,0,0,.16-.31c0-.09,0-.2-.14-.3a.44.44,0,0,1-.13-.32c0-.78,0-1.56,0-2.35,0-.18,0-.36,0-.54,0-.66,0-1.32,0-2s0-1.32,0-2,0-1.33,0-2a1.49,1.49,0,0,1,0-.36c0-.11.1-.22.15-.33a1.21,1.21,0,0,0-.12-.33A1.37,1.37,0,0,1,21,6.39a1,1,0,0,0-.25-.66,1.2,1.2,0,0,1-.16-.32,2.73,2.73,0,0,0-.25-.48.68.68,0,0,1-.08-.34c0-.37,0-.73,0-1.09a1.46,1.46,0,0,1,0-.36,1.37,1.37,0,0,1,.16-.32c.1-.15.15-.33.24-.48a1.55,1.55,0,0,1,.52-.5c.16-.08.32-.16.47-.25a.64.64,0,0,1,.35-.1c.42,0,.84-.05,1.26-.06,2.05,0,4.09,0,6.14.06a1.52,1.52,0,0,1,.69.19l.16.07c.36,0,.73,0,1.09.08a.79.79,0,0,1,.33.13c.3.2.67.28,1,.48a3.39,3.39,0,0,1,.8.42,2.32,2.32,0,0,1,.77.46,1.65,1.65,0,0,0,.45.29,1,1,0,0,1,.32.18c.37.31.72.64,1.06,1l.88.9a4.88,4.88,0,0,1,.59.69c.08.29.29.52.38.81a6.54,6.54,0,0,0,.32.65,5.4,5.4,0,0,0,.23.49,1.45,1.45,0,0,1,.23.67,1.06,1.06,0,0,0,.14.33c.2.3.3.66.47,1a.58.58,0,0,1,0,.18l.09,2.71a.94.94,0,0,0,.14.51,2.13,2.13,0,0,1,.21.49c.07.17.17.32.25.48a.64.64,0,0,1,0,.17,1.1,1.1,0,0,1,0,.18c0,.61,0,1.21,0,1.81,0,.84,0,1.69,0,2.53a.8.8,0,0,1-.13.52c-.16.25-.23.55-.4.8a1.05,1.05,0,0,0-.16.51c0,.36,0,.72,0,1.08a1.14,1.14,0,0,1-.12.52,1.32,1.32,0,0,0-.16.51c0,.24,0,.49,0,.72a1.08,1.08,0,0,1-.15.52,2.69,2.69,0,0,0-.24.48c-.08.23-.26.41-.32.64a1.37,1.37,0,0,1-.27.47,7.69,7.69,0,0,1-.62.66l-2.55,2.56a.5.5,0,0,0,0,.65,1.7,1.7,0,0,1,.22.68l0,.18a3.71,3.71,0,0,1,.35,1,1.11,1.11,0,0,0,.07.16c0,.06.06.11.08.16a1.19,1.19,0,0,1,.17.51,1.74,1.74,0,0,0,.24.67.89.89,0,0,1,.08.17,8.84,8.84,0,0,1,0,1.26,8.86,8.86,0,0,0,.07,1.45,1,1,0,0,1,.07.15,1.68,1.68,0,0,1,.24.87,2,2,0,0,0,.26.85.77.77,0,0,1,.08.34c0,.12,0,.24.06.36l.24.48c0,.3.09.6.13.89l.17.33a1.32,1.32,0,0,1,.16.51,1.39,1.39,0,0,0,.14.52c.12.22.12.23,0,.49a.61.61,0,0,0,.06.67A1.33,1.33,0,0,1,38,43a1.37,1.37,0,0,0,.57.68.52.52,0,0,0,.18,0,.4.4,0,0,0,.33-.09,2.28,2.28,0,0,0,.39-.37c.08-.1.14-.2.22-.29a.7.7,0,0,0,.12-.34c0-.3,0-.6.07-.9a1.19,1.19,0,0,1,.14-.52,2.31,2.31,0,0,0,.2-.68.85.85,0,0,1,.06-.17,4.39,4.39,0,0,0,.27-.47c.07-.16.13-.33.21-.5a1,1,0,0,0,.15-.51c0-.24,0-.48,0-.72,0-.84,0-1.69,0-2.53a1.18,1.18,0,0,1,.13-.52l.14-.33c0-.3,0-.6.05-.9a1.34,1.34,0,0,1,.22-.68.81.81,0,0,0,.14-.33,1.85,1.85,0,0,1,.27-.85.68.68,0,0,0,.09-.35c0-.24,0-.48,0-.72a1,1,0,0,1,.14-.51c.06-.11.1-.22.16-.33a1.34,1.34,0,0,1,.5-1.11.66.66,0,0,0,.22-.48v-.36c0-.12,0-.24,0-.36,0-.9.06-1.8.07-2.71a1,1,0,0,1,.16-.5,3.6,3.6,0,0,0,.23-.49,3.64,3.64,0,0,1,.28-.47c0-.39.35-.61.58-.89a.75.75,0,0,0,.09-.15l-.3-.45c0-.12,0-.24,0-.36l.06-2.89a1,1,0,0,1,.18-.5,1,1,0,0,0,.15-.33,1,1,0,0,1,.15-.32,1.53,1.53,0,0,0,.24-.86c0-.24,0-.48,0-.69s.11-.25.17-.36a.75.75,0,0,0,.1-.34c.05-.42,0-.84,0-1.26a.73.73,0,0,1,.09-.35c.16-.25.26-.53.4-.8a1.33,1.33,0,0,0,.25-.67,1.62,1.62,0,0,1,.23-.67c-.05-.11-.1-.22-.14-.33-.11-.29,0-.5.26-.55l.35,0a1.75,1.75,0,0,0,0,.32.39.39,0,0,0,.42.39.86.86,0,0,0,0,.17.32.32,0,0,0,.24.21,1.15,1.15,0,0,1,.61.31l.41-.32a.46.46,0,0,0,.07-.47.23.23,0,0,0-.12-.12.5.5,0,0,0-.32-.05l-.44.27-.52,0c0-.11,0-.22,0-.33a.35.35,0,0,0-.08-.31.39.39,0,0,0-.29-.1,1.58,1.58,0,0,0-.07-.53,1.66,1.66,0,0,0-.19-.3.45.45,0,0,1-.1-.33c0-.06,0-.12,0-.18a4.87,4.87,0,0,1,0-.54c0-.12,0-.24,0-.35a.89.89,0,0,1,.08-.17c.17-.25.23-.54.39-.8a2.42,2.42,0,0,0,.25-.48c.06-.16.14-.32.21-.49A1.85,1.85,0,0,1,47,5.84a.89.89,0,0,0-.14-.33c-.11-.14-.23-.28-.35-.41a2.21,2.21,0,0,1-.71-1c-.14-.3-.23-.36.19-.76a1,1,0,0,0,.35-.6.6.6,0,0,1,.08-.16,1,1,0,0,1,.41-.33,4.4,4.4,0,0,0,.5-.21c.1-.06.21-.1.33-.16.35,0,.71,0,1.06-.06a.41.41,0,0,1,.34.1c.06.07,0,.17-.09.27a2.23,2.23,0,0,0-.35.4.68.68,0,0,0-.13.33,1.4,1.4,0,0,0,0,.35.25.25,0,0,0-.25.13c0,.12,0,.17.13.11a.27.27,0,0,0,.09-.27.32.32,0,0,0,.32-.1c.12-.13.25-.27.38-.39s.22-.13.28,0a.34.34,0,0,1,0,.34,4.45,4.45,0,0,1-.26.48c0,.17,0,.35-.08.54s-.1.21-.17.31A.51.51,0,0,0,49,5a.32.32,0,0,1-.05.45c-.14.16-.08.33,0,.5a1.87,1.87,0,0,0,.5.51.41.41,0,0,0,.33-.08s0-.11,0-.15a1.87,1.87,0,0,1-.19-.69c0-.12,0-.24,0-.36a1.14,1.14,0,0,1,.22-.84.64.64,0,0,0,.18-.5c0-.48,0-1,.06-1.44a.41.41,0,0,1,.43-.23.4.4,0,0,1,.15.1l.36.41a.48.48,0,0,0,.64.09l.31-.2a1.84,1.84,0,0,1,.31.16c.1.06.18,0,.21-.15a.4.4,0,0,0-.1-.33.87.87,0,0,1-.13-.32.49.49,0,0,1,.32-.14,4.86,4.86,0,0,1,.54,0,.9.9,0,0,1,.49.21,1.16,1.16,0,0,1,.33.43c.08.23.23.42.33.64a3,3,0,0,0,.21.49,1.39,1.39,0,0,1,.21.68.87.87,0,0,0,.12.34c.15.3.15.31,0,.48l-.33.43a.63.63,0,0,0-.15.32,5,5,0,0,1-.37,1c-.12.3-.11.31-.33.38a.43.43,0,0,0-.28.19,2.16,2.16,0,0,1,.24.48,2.2,2.2,0,0,1,0,.36v.17a2.35,2.35,0,0,0-.23.48c.11.17.31.18.47.25a.75.75,0,0,1,.46.52,3.07,3.07,0,0,0,.2.5,1.06,1.06,0,0,1,.17.5,7.88,7.88,0,0,1,.07,1.09.77.77,0,0,0,.13.51,1.54,1.54,0,0,1,.14.52c0,.24,0,.48,0,.7s.12.23.19.33a.93.93,0,0,1,.16.51c0,.24,0,.48,0,.72a3.48,3.48,0,0,1,0,.72c0,.24-.11.46-.4.53s-.2.13-.15.21a.17.17,0,0,0,.14.1,1.19,1.19,0,0,1,.47.25.76.76,0,0,1,.27.45c0,.18,0,.36.06.54s.11.22.18.32a.93.93,0,0,1,.16.5c0,.55,0,1.09.06,1.64,0,.1.08.21.13.32a1.39,1.39,0,0,1,.14.52l0,.72a.93.93,0,0,0,.16.51c.06.1.11.22.17.33a2.14,2.14,0,0,0,.25.85.49.49,0,0,1,.06.17.55.55,0,0,1,0,.17,5.21,5.21,0,0,1,0,.55c0,.72,0,1.44,0,2.17,0,.48,0,1,0,1.44a1,1,0,0,0,.15.51,1.9,1.9,0,0,1,.21.69,1,1,0,0,0,.13.33c.13.26.14.27,0,.5a.54.54,0,0,0,0,.51,1.51,1.51,0,0,1,.18.69c0,.78,0,1.56,0,2.34,0,.31,0,.61,0,.91a.94.94,0,0,0,.15.51,1.91,1.91,0,0,1,.2,1.05.44.44,0,0,0,.07.34,1.29,1.29,0,0,0,.09.16.91.91,0,0,1,.08.86c0,.11-.1.22-.15.33a1.67,1.67,0,0,1,.23.85,4.87,4.87,0,0,0,0,.54c0,.49,0,1,0,1.45a1.06,1.06,0,0,0,.13.52c.21.3.27.67.46,1a.35.35,0,0,1,.06.17c0,.12,0,.24,0,.36,0,.78,0,1.57,0,2.35a1,1,0,0,0,.13.52c.2.3.28.66.47,1a.79.79,0,0,1,.1.34,1.19,1.19,0,0,0,.17.51c.09.16.15.33.25.48a.6.6,0,0,0,.59.32.4.4,0,0,0,.32-.14.55.55,0,0,0,.12-.14.86.86,0,0,0,0-.17c.07-.41.08-.43.15-.51A1.28,1.28,0,0,1,62,47c.21-.12.18-.21-.08-.34a.52.52,0,0,1-.39-.53,1.09,1.09,0,0,1,0-.18c0-.42,0-.84,0-1.26s0-1,0-1.45,0-1,0-1.45c0-.72,0-1.44,0-2.17a.66.66,0,0,1,.08-.34c.09-.19.29-.19.46-.22h.18c0,.12,0,.23,0,.35a.27.27,0,0,0,.16.28l.15-.08c.18-.12.32-.3.29-.4s-.08-.14-.48-.12l-.17,0a.64.64,0,0,1,.13-.33c.2-.26.12-.4-.23-.44l-.35-.05a.54.54,0,0,1-.2-.47c0-.42,0-.85,0-1.27a1.63,1.63,0,0,1,.2-.86.48.48,0,0,0,0-.17c0-.42,0-.84.07-1.26,0-.11,0-.24,0-.36,0-.3,0-.6,0-.9s0-.43.32-1a.44.44,0,0,0,0-.34,2,2,0,0,0-.21-.3,1.81,1.81,0,0,0-.1-.17c0-.28,0-.58,0-.89,0-.1-.1-.21-.16-.31-.16-.29-.17-.4,0-.65l.19-.33c0-1.06.06-2.14,0-3.23,0-.12,0-.24,0-.36a2.32,2.32,0,0,1,0-.53,3,3,0,0,1,.2-.49c-.06-.11-.11-.22-.16-.33l.13-.33a1.46,1.46,0,0,0-.12-.33.69.69,0,0,1-.08-.35c0-.36,0-.72,0-1.06.06-.13.09-.25.15-.35A.62.62,0,0,0,62,21a.89.89,0,0,1-.12-.52v-.36a1.21,1.21,0,0,1,.2-.69.82.82,0,0,0,.09-.51.54.54,0,0,0-.13-.33c0-.05-.06-.11-.1-.16a.83.83,0,0,1-.13-.51,3.07,3.07,0,0,1,.06-.53,2.41,2.41,0,0,1,.21-.5.35.35,0,0,0,.06-.16c0-.42,0-.84,0-1.26,0-.73,0-1.45,0-2.17,0-.06,0-.12,0-.18a.72.72,0,0,0-.11-.34.49.49,0,0,1-.09-.32c.08-.15.23-.27.21-.47a.4.4,0,0,0-.16-.31.82.82,0,0,1-.23-.66c0-.18,0-.36,0-.54a9.74,9.74,0,0,1,0-1.08c0-.36,0-.72,0-1.08A1.27,1.27,0,0,1,62,7.59l.1-.15A.73.73,0,0,0,62,7.15a.47.47,0,0,1-.11-.34,8.87,8.87,0,0,1,.06-.89.64.64,0,0,1,.14-.5l.11-.15a.45.45,0,0,0-.06-.14l-.39-.38c-.12-.13-.23-.27-.35-.41l-.12-.13a2,2,0,0,1-.35-.41,8.52,8.52,0,0,1-.4-.8s0-.12,0-.18a.38.38,0,0,1,.05-.16,4.19,4.19,0,0,1,.85-.93l.15-.1a.68.68,0,0,1,.33-.13c.42,0,.84,0,1.26,0a.92.92,0,0,1,.67.22.44.44,0,0,0,.5,0l.31-.16a1.78,1.78,0,0,0,.5.19l.53.05.36,0c.24,0,.48,0,.72,0a.84.84,0,0,1,.51.14c.15.1.3.2.46.29s.35.34.22.57-.11.21-.16.31a3.14,3.14,0,0,1,.18.31,2.77,2.77,0,0,0,.31.65.57.57,0,0,1,.11.33l0,.54a4.73,4.73,0,0,0,0,.54,2.38,2.38,0,0,0,.22.49.52.52,0,0,1,0,.35c0,.13-.14.17-.28.17a1.49,1.49,0,0,0-.36,0,.28.28,0,0,0-.11-.26.36.36,0,0,0-.27-.09c0-.13,0-.23-.1-.27s-.19,0-.14.11.16.12.28.11,0,.1,0,.14a.36.36,0,0,0,.32.24c0,.22,0,.22.2.46a.27.27,0,0,1,.1.32.43.43,0,0,1,0,.16.31.31,0,0,1-.28.18.27.27,0,0,0-.15-.3.94.94,0,0,0-.1.1.32.32,0,0,0,.3.15l0,.36c0,.33,0,.33.16.67a1,1,0,0,1,.18.67.88.88,0,0,0,.21.49c.13.18.33.31.41.25a.75.75,0,0,0,.18-.31c.09-.22.2-.29.4-.27s.36,0,.49.15a.93.93,0,0,1,.13.51c0,.12,0,.24,0,.36s0,.12,0,.18a1,1,0,0,0,.16.51l.34.42a1.07,1.07,0,0,1,.21.67,1,1,0,0,1-.18.5c-.06.12,0,.2.12.26a.58.58,0,0,1,.4.33,1.36,1.36,0,0,0,.14.33,1.31,1.31,0,0,1,.26.66.79.79,0,0,0,.1.34c.17.25.24.55.39.81a1.74,1.74,0,0,1,.24.86c0,.12,0,.24,0,.35a.51.51,0,0,0,.07.17,3,3,0,0,1,.3.65c.08.22.22.42.32.65s.16.32.24.48a1.37,1.37,0,0,1,.08.35,1.4,1.4,0,0,0,.24.67l.09.16a4.94,4.94,0,0,0,.1.53,4.16,4.16,0,0,0,.22.48,3.06,3.06,0,0,0-.22.49.29.29,0,0,0,.08.33,4,4,0,0,1,.76.77.78.78,0,0,1,.18.49c0,.06,0,.12,0,.18,0,.26-.11.36-.46.41l-.18,0c-.32,0-.47.29-.41.66a.77.77,0,0,0,.12.33.38.38,0,0,1,0,.48.35.35,0,0,0-.08.16,1.4,1.4,0,0,1-.17.51c-.07.1-.11.2-.18.32,0,.29,0,.59,0,.89a.94.94,0,0,0,.11.52,1.69,1.69,0,0,1,.23.49.43.43,0,0,0,.2.27.69.69,0,0,0,.2-.3c.1-.29.1-.3.33-.37a.51.51,0,0,0,.3-.19.63.63,0,0,0,.08-.34,1.09,1.09,0,0,0,0-.18,2.43,2.43,0,0,0-.08-.53c0-.11-.13-.2-.18-.31a.54.54,0,0,1,.13-.65c.12-.14.26-.26.38-.39a.4.4,0,0,0,.1-.15.85.85,0,0,0,0-.17ZM76,27.1c.13,0,.23,0,.27-.1s0-.17-.13-.14S76,27,76,27.13a.25.25,0,0,0-.27.15l.1.09A.23.23,0,0,0,76,27.1Zm-11.58.4a.28.28,0,0,0-.14-.3l-.11.09a.27.27,0,0,0,.3.16.29.29,0,0,0,.15.3l.1-.11A.3.3,0,0,0,64.37,27.5ZM81,6.51c0-.13,0-.27,0-.4a.25.25,0,0,0,.28-.1c0-.1,0-.17-.12-.13a.23.23,0,0,0-.11.27.3.3,0,0,0-.27.12.11.11,0,0,0,0,.11.24.24,0,0,0,.25.11.21.21,0,0,0,.1.27c.12,0,.19,0,.15-.13S81.15,6.48,81,6.51Zm-57.89.33a.23.23,0,0,0,.27-.11c0-.11,0-.17-.13-.13a.25.25,0,0,0-.1.28.24.24,0,0,0-.29.14l.1.11A.26.26,0,0,0,23.13,6.84Zm32.94,25c0,.14,0,.24.12.27s.19,0,.15-.14-.14-.14-.27-.12,0-.21-.12-.24-.18,0-.13.12A.22.22,0,0,0,56.07,31.81ZM77.76,7.24A.22.22,0,0,0,77.65,7c-.12,0-.18,0-.13.14s.14.14.27.1a.23.23,0,0,0,.14.28L78,7.39A.25.25,0,0,0,77.76,7.24ZM78.5,38a1.22,1.22,0,0,0-.33,0A.47.47,0,0,0,78,38a.26.26,0,0,0-.12.11c0,.09.05.17.18.21a.33.33,0,0,0,.32-.05.34.34,0,0,0,.11-.3.24.24,0,0,0,.27-.12c0-.1,0-.16-.13-.12S78.49,37.85,78.5,38ZM62.59,36.89c.24,0,.29-.12.33-.31a.26.26,0,0,0-.14-.3.3.3,0,0,0-.18.25,1,1,0,0,0,0,.35c-.13,0-.24,0-.27.13s0,.19.16.16S62.62,37,62.59,36.89ZM53.16,20.22a.32.32,0,0,0,.29-.15.48.48,0,0,0,0-.17.24.24,0,0,0-.14-.29.32.32,0,0,0-.17.3,2.08,2.08,0,0,0,0,.35.22.22,0,0,0-.28.1c0,.12,0,.19.12.14S53.18,20.35,53.16,20.22Zm12.66-1a.21.21,0,0,0-.1-.25c-.11-.05-.17,0-.12.12a.22.22,0,0,0,.26.1c0,.11,0,.22,0,.34a.9.9,0,0,0,0,.16.27.27,0,0,0,.1.13c.08,0,.16,0,.2-.15a.4.4,0,0,0-.07-.32A.34.34,0,0,0,65.82,19.17Zm.37,3.95a.47.47,0,0,0,.17,0,.4.4,0,0,0,.21-.42.31.31,0,0,0-.2-.24l-.17,0a.29.29,0,0,0-.17-.28.37.37,0,0,0-.46.11.31.31,0,0,0,.29.16c.11,0,.23,0,.35,0a1.68,1.68,0,0,0,0,.74c-.11,0-.22,0-.25.12s0,.17.12.12A.26.26,0,0,0,66.19,23.12ZM48.12,4.34s-.12,0-.16,0a4.31,4.31,0,0,0-.4.32c-.11.09-.13.2-.07.27a.23.23,0,0,0,.14.08A.62.62,0,0,0,48,5a.31.31,0,0,0,.13-.3c0-.12,0-.23,0-.35.14,0,.26,0,.29-.12s0-.2-.15-.15S48.09,4.2,48.12,4.34Zm22.06,9.75a.22.22,0,0,0-.12-.26c-.12,0-.18,0-.14.15s.13.13.26.12a2.41,2.41,0,0,0,0,.71.33.33,0,0,0,.18.26.3.3,0,0,0,.16-.3c0-.12,0-.24,0-.36a.35.35,0,0,0-.06-.16A.29.29,0,0,0,70.18,14.09Zm-47-9.74a.26.26,0,0,0-.28.15.46.46,0,0,0-.07.16,3.53,3.53,0,0,0,0,.86.69.69,0,0,0,.11.13c.08,0,.16,0,.24-.13a6.12,6.12,0,0,0,0-1.21c.12,0,.23,0,.26-.11s0-.17-.12-.12A.24.24,0,0,0,23.17,4.35Zm22.4,36.14a1.45,1.45,0,0,0,.36,0c.24,0,.3-.15.16-.34a1.22,1.22,0,0,0-.24-.27.36.36,0,0,0-.47,0c-.06.09,0,.19,0,.31s.11.21.16.31l-.34,0a.44.44,0,0,0-.16,0,.26.26,0,0,0-.12.11c0,.09,0,.18.15.23a.32.32,0,0,0,.31-.07A.39.39,0,0,0,45.57,40.49ZM65.48,16.62a.37.37,0,0,0,.32-.1,1.35,1.35,0,0,0,.31-.44c.07-.15,0-.44-.12-.48a.56.56,0,0,0-.34,0,.2.2,0,0,0-.11.13,2.42,2.42,0,0,0-.06.89.23.23,0,0,0-.27.11c0,.11,0,.18.13.14S65.49,16.75,65.48,16.62Zm12.63,26a.69.69,0,0,0,.17,0,1.64,1.64,0,0,0,.4-.34.48.48,0,0,0,.13-.31c0-.14,0-.24-.15-.28a.42.42,0,0,0-.33,0,.23.23,0,0,0-.12.12,1,1,0,0,0-.07.34c0,.18,0,.36,0,.53a.88.88,0,0,0-.17,0,.29.29,0,0,0-.22.22.31.31,0,0,0,.09.31c.09.09.19.07.24-.08A1.1,1.1,0,0,0,78.11,42.65ZM80,4.35l-.17,0a.69.69,0,0,0-.73.37.89.89,0,0,0-.2.65.41.41,0,0,0,.16.3.21.21,0,0,0,.19-.21A.79.79,0,0,1,79.45,5c.12-.13.25-.24.38-.36a.32.32,0,0,0,.1-.31.27.27,0,0,0,.27-.14l-.09-.1A.28.28,0,0,0,80,4.35Zm-1.8,35.81-.52,0-.28-.22s-.08-.09-.13-.1a.38.38,0,0,0-.33,0c-.12.07-.12.17,0,.28l.48.49.14.11a.41.41,0,0,0,.47,0,.37.37,0,0,0,.15-.3,1.94,1.94,0,0,0,0-.34,1.46,1.46,0,0,0,.51,0l.12-.13a.27.27,0,0,0-.28-.15.49.49,0,0,0-.16,0A.32.32,0,0,0,78.16,40.16Zm-12-28.26.53,0,.31-.19a3.09,3.09,0,0,1,.32-.14c.22-.08.24-.18.1-.39s-.3-.28-.42-.22-.29.19-.45.27-.3.16-.32.39,0,.23,0,.35A.35.35,0,0,0,66,12s0,.08,0,.11.09,0,.11,0A.29.29,0,0,0,66.18,11.9Zm10.5,22.82a.85.85,0,0,0,0,.49c.07.14.16.14.28.06a.85.85,0,0,0,.31-.39c0-.09-.2-.18-.45-.19l-.16,0a.75.75,0,0,1,.13-.32,1.16,1.16,0,0,0,.24-.65.52.52,0,0,0-.07-.33c-.08-.11-.16-.11-.29,0a3.3,3.3,0,0,1-.45.26c-.25.13-.46.37-.78.35l-.12.12a.24.24,0,0,0,.2.21c.17,0,.35,0,.52.06l.29.2a.61.61,0,0,0,.14.1ZM64.05,9a1,1,0,0,0,0,.17.36.36,0,0,0,.4.19c.13,0,.18-.12.15-.19a.19.19,0,0,0-.13-.09c-.16,0-.33,0-.5,0a.6.6,0,0,1,.12-.32,1.54,1.54,0,0,0,.21-.29.38.38,0,0,0,0-.33A2.8,2.8,0,0,1,64,7.49a.36.36,0,0,0-.42-.21.27.27,0,0,0-.24.21,1.33,1.33,0,0,1-.28.63,1.68,1.68,0,0,1,.28.82c0,.36.13.4.42.21A1,1,0,0,1,64.05,9ZM51,9.4a.4.4,0,0,0-.33.12c-.13.12-.27.19-.44,0a2.08,2.08,0,0,0-.49-.19c-.16-.07-.3-.2-.46-.27a.29.29,0,0,0-.33.06s0,.1,0,.13a2.48,2.48,0,0,1,.18.31,2.28,2.28,0,0,1,0,.52.32.32,0,0,0,.18.27l.16-.07a1.47,1.47,0,0,1,.68-.2.83.83,0,0,1,.81.22c.13.1.21.11.28,0a.38.38,0,0,0,0-.33c-.08-.23-.3-.38-.34-.62a.23.23,0,0,0,.27-.11c0-.12,0-.19-.13-.14A.22.22,0,0,0,51,9.4ZM77.39,36.55a.86.86,0,0,0,0-.17.35.35,0,0,0-.42-.16.3.3,0,0,0-.19.25.43.43,0,0,0,0,.16c0,.16.13.17.25.07a.76.76,0,0,1,.44-.21.83.83,0,0,0,.51.66,2.65,2.65,0,0,0,.56-.44l.6-.65a.72.72,0,0,1,.46-.24l.52,0a.4.4,0,0,0,.19-.44.37.37,0,0,0-.21-.25.88.88,0,0,0-.83.17,2.46,2.46,0,0,0-.63.61.65.65,0,0,1-.45.28.92.92,0,0,0-.45.25A.52.52,0,0,1,77.39,36.55ZM33,16a1,1,0,0,1,0-.17,1.67,1.67,0,0,0-.23-.68.9.9,0,0,1-.13-.51c0-1.2,0-2.4,0-3.6,0-.07,0-.13,0-.19s0-.12,0-.17a1.12,1.12,0,0,0-.71-.95,2,2,0,0,1-.34-.12,1.55,1.55,0,0,0-.68-.21c-.9-.05-1.8-.07-2.7-.05l-.54,0a.86.86,0,0,0-.48.21,1.37,1.37,0,0,0-.35.41,2,2,0,0,1-.15.33,1.9,1.9,0,0,0-.31.64,1.37,1.37,0,0,1-.16.32.7.7,0,0,0-.09.35c-.06,1.32,0,2.64,0,4a1.1,1.1,0,0,1,0,.18.65.65,0,0,0,.11.33c.06.11.12.21.17.32a.82.82,0,0,1,.08.35,1.69,1.69,0,0,1-.24,1,.92.92,0,0,0-.12.51.6.6,0,0,0,.08.35,1.79,1.79,0,0,1,.26.66,1.52,1.52,0,0,0,.16.51,1.31,1.31,0,0,1,.15.52c0,.9,0,1.8,0,2.7,0,.24,0,.48,0,.72a.78.78,0,0,0,.23.47.87.87,0,0,0,.6.35,2.21,2.21,0,0,1,.84.29,13.1,13.1,0,0,0,2.17,0,.82.82,0,0,0,.34-.09l.16-.08a4.36,4.36,0,0,1,.51-.17c.22-.09.4-.26.62-.36a1.43,1.43,0,0,0,.7-.79,3.24,3.24,0,0,1,.17-.32,1,1,0,0,0,.14-.51q0-2.88,0-5.76c0-.06,0-.12,0-.18a.62.62,0,0,0-.11-.34C33.11,16.22,33.06,16.11,33,16ZM51.69,33.38c0-.14,0-.26,0-.38,0-1.14,0-2.29,0-3.43a.88.88,0,0,0-.13-.52,7.49,7.49,0,0,1-.38-.81,1,1,0,0,1-.15-.51c0-1.57,0-3.13,0-4.7,0-.12,0-.24,0-.36a3.24,3.24,0,0,1,.17-.32.52.52,0,0,0,0-.51c0-.05-.06-.1-.09-.16a1,1,0,0,1-.16-.51,1.32,1.32,0,0,0-.24-.66c-.16-.25-.24-.55-.39-.8,0-.06,0-.12.08-.17s.1-.22,0-.3a.47.47,0,0,0-.33-.11,1,1,0,0,0-.87.54.37.37,0,0,0-.07.16c-.06.6,0,1.21-.07,1.81A.78.78,0,0,1,49,22c0,.06,0,.12-.08.17a.8.8,0,0,0-.11.34,1.4,1.4,0,0,1-.21.68,1.06,1.06,0,0,0-.14.33c0,.12,0,.24,0,.36a4.85,4.85,0,0,1-.08.53c-.06.17-.14.33-.21.5,0,1.08-.09,2.17-.08,3.25v.18a2.16,2.16,0,0,1-.18.69c-.06.18.09.33.08.5a4.93,4.93,0,0,0-.3.66,3,3,0,0,1-.26.46,2.34,2.34,0,0,1-.31.66.47.47,0,0,0,0,.16c0,.19,0,.37,0,.55a.82.82,0,0,0,.15.5,2.45,2.45,0,0,0,.47.55,2,2,0,0,0,.64.31l.17.08.15.08a.88.88,0,0,0,.35.1,1.72,1.72,0,0,1,.85.33l.88.09h.18a.68.68,0,0,0,.47-.23A3.9,3.9,0,0,0,51.69,33.38ZM78.74,22.89c-.11,0-.2,0-.21.19a1,1,0,0,1-.24.46.5.5,0,0,0-.13.32c0,.18,0,.35,0,.53a1,1,0,0,0,.51.87.42.42,0,0,0,.16,0,.27.27,0,0,0,.31-.11.41.41,0,0,0,.07-.34,1.56,1.56,0,0,0-.26-.45.5.5,0,0,1,0-.34.24.24,0,0,1,.13-.11l.31-.17a.16.16,0,0,0,.06-.13.25.25,0,0,0-.08-.15A6,6,0,0,0,78.74,22.89Zm-6.58,7.74a1.66,1.66,0,0,1,.64-.31c.17,0,.19-.14.09-.26a.35.35,0,0,1,0-.47.46.46,0,0,0,0-.5S72.9,29,72.85,29a.56.56,0,0,0-.34,0c-.05,0-.08.08-.13.12a1.43,1.43,0,0,1-.47.73.25.25,0,0,1-.32.09l-.16-.07c-.1-.07-.19-.15-.29-.21a.41.41,0,0,0-.34,0,.43.43,0,0,0-.23.44.35.35,0,0,0,.23.23,1.35,1.35,0,0,0,.35.06h.18a1.45,1.45,0,0,1,.36,0A1.21,1.21,0,0,1,72.16,30.63Zm2,2.08.21.27a.67.67,0,0,1,.11.14.84.84,0,0,1,0,.17.37.37,0,0,0,.2.27.46.46,0,0,0,.48-.1c.16-.17.32-.34.47-.52s.15-.2,0-.44a2.88,2.88,0,0,1-.18-.49.28.28,0,0,0-.11-.13.56.56,0,0,0-.34,0A1.21,1.21,0,0,0,75,32a1.83,1.83,0,0,1-.3.18.83.83,0,0,0-.46.22ZM67,31.47a1,1,0,0,0-.11-.5.34.34,0,0,0-.26-.2.25.25,0,0,0-.31.07.31.31,0,0,0-.09.14,2.65,2.65,0,0,1-.34.62.5.5,0,0,0,0,.34c.11.13.23.27.33.41a.2.2,0,0,0,.31,0A1.09,1.09,0,0,0,67,31.47Zm-2.37.74a.67.67,0,0,0-.63.25l-.12.13c-.12.1-.11.19,0,.3a1.45,1.45,0,0,0,.41.33.63.63,0,0,1,.47.47c.08.22.25.26.39.11.31-.32.33-.37,0-.71a.6.6,0,0,0-.48-.19c-.14-.07-.17-.16-.09-.26a.45.45,0,0,1,.13-.1A.31.31,0,0,0,65,32.4C65.05,32.31,64.83,32.2,64.61,32.21ZM80.13,11.09l.63-.29a.43.43,0,0,0,.23-.25,2.88,2.88,0,0,0,.1-.51,2.26,2.26,0,0,1,.21-.48.42.42,0,0,0,0-.33A.23.23,0,0,0,81,9.1a.38.38,0,0,0-.27.18.53.53,0,0,0,0,.17,1.06,1.06,0,0,1-.46.9.74.74,0,0,0-.12.13.56.56,0,0,0-.11.32A.28.28,0,0,0,80.13,11.09Zm-2,10h0v-.35a.64.64,0,0,0-.19-.46,1,1,0,0,0-.27-.23c-.07,0-.25.06-.42.24s-.11.19,0,.29a1,1,0,0,1,.2.28,1.83,1.83,0,0,1,.11.33.6.6,0,0,0,.09.15c.09.15.32.3.39.24a.29.29,0,0,0,.12-.31A1.08,1.08,0,0,1,78.11,21.06ZM71.58,22a.46.46,0,0,0,.17,0,.29.29,0,0,0,.17-.28,1,1,0,0,0,0-.17,2.92,2.92,0,0,0-.21-.28c-.12-.14-.08-.33-.14-.49s-.07-.08-.11-.13a1,1,0,0,0-.34,0c-.09,0-.23.3-.22.45s0,.23,0,.34.21.28.32.41A.37.37,0,0,0,71.58,22Zm5,20.32c0-.27-.06-.33-.32-.32s-.29.07-.33.31a1.13,1.13,0,0,0,0,.18c0,.42,0,.42-.23.63a2.91,2.91,0,0,1-.24.27c-.1.1-.13.21,0,.28a.41.41,0,0,0,.33.09,2.17,2.17,0,0,0,.52-.48.35.35,0,0,0,.07-.33,3,3,0,0,1,.25-.47S76.61,42.37,76.62,42.32Zm-.45,5.52a4.92,4.92,0,0,1-.61.3c-.22.06-.23.14-.06.35A4.41,4.41,0,0,0,76,49a.23.23,0,0,0,.3,0,1.43,1.43,0,0,0,.26-.23.47.47,0,0,0,0-.62A1.8,1.8,0,0,0,76.17,47.84Zm.33-19.2.31.18.15.07a.25.25,0,0,0,.31-.08c0-.08,0-.19-.11-.28s-.39-.43-.62-.62a.38.38,0,0,0-.16,0,.26.26,0,0,0-.3.12.64.64,0,0,0-.08.14.57.57,0,0,0,0,.18.7.7,0,0,0,.1.49C76.26,28.87,76.37,28.71,76.5,28.64ZM53.93,15.44a4,4,0,0,1-.08.52,4.25,4.25,0,0,1-.21.49.26.26,0,0,0,.27.15.35.35,0,0,0,.29-.16,1.11,1.11,0,0,0,.07-.16,1.57,1.57,0,0,1,.15-.32c0-.11.1-.21.16-.32a2.34,2.34,0,0,0,0-.53.31.31,0,0,0-.08-.15c-.06-.07-.15,0-.26.07A2.15,2.15,0,0,0,53.93,15.44ZM78.29,35l.17-.06.32-.13c.37-.14.43-.17.43-.25s0-.23,0-.35l-.35-.36c-.14-.14-.23-.12-.43.08a.63.63,0,0,0-.11.12,1,1,0,0,0-.18.48A.63.63,0,0,0,78.29,35ZM53.2,38.5v.77a.55.55,0,0,0,0,.17.34.34,0,0,0,.19.26.36.36,0,0,0,.32,0c.12-.06.15-.3.06-.46a1.23,1.23,0,0,1-.26-.62C53.47,38.46,53.4,38.41,53.2,38.5ZM79.37,8.22a2.55,2.55,0,0,0-.23-.47A.77.77,0,0,0,79,7.63a.6.6,0,0,0-.33.08.21.21,0,0,0-.1.14.32.32,0,0,0,0,.33,1.68,1.68,0,0,0,.35.4.33.33,0,0,0,.33.06C79.48,8.57,79.5,8.5,79.37,8.22ZM63.12,11.79l.65-.24c.19-.08.22-.21.07-.36l-.12-.12L63.58,11a.42.42,0,0,0-.47,0,.28.28,0,0,0-.14.29C63,11.42,62.89,11.65,63.12,11.79ZM75.92,41l-.09.15a.37.37,0,0,0-.1.31c0,.13.31.15.48,0a1.48,1.48,0,0,0,.4-.35c.15-.17.08-.33,0-.5a.21.21,0,0,0-.29-.13.23.23,0,0,0-.3.14A3.21,3.21,0,0,0,75.92,41ZM65.3,25a.6.6,0,0,0-.11.12,3.11,3.11,0,0,1-.54.86c-.09.11-.14.2-.09.28s.33.14.47.05a1.09,1.09,0,0,0,.26-.22,2.9,2.9,0,0,0,.19-.29c0-.17,0-.34,0-.51A.4.4,0,0,0,65.3,25Zm-1.73,8.45a.45.45,0,0,0-.1-.13c-.14-.1-.33-.13-.42-.3a1.79,1.79,0,0,1-.13-.32c-.06-.16-.14-.17-.27-.07a.94.94,0,0,0-.33.41c0,.07.12.31.27.42a.87.87,0,0,0,.84.1S63.52,33.49,63.57,33.46Zm16.71,10a.33.33,0,0,0-.07-.33,1.11,1.11,0,0,0-.54-.39.25.25,0,0,0-.31.06.15.15,0,0,0,0,.13,2.36,2.36,0,0,0,.58.64C80.1,43.68,80.21,43.64,80.28,43.43ZM65,7.25c-.13,0-.18.11-.13.21a.38.38,0,0,0,.09.15,4.58,4.58,0,0,0,.47.51c.12.09.22.11.29,0a.4.4,0,0,0,.08-.32,1.17,1.17,0,0,0-.62-.58S65.1,7.25,65,7.25ZM63.66,26.74a.84.84,0,0,0,0-.49c-.06-.16-.12-.17-.26-.08s-.37.31-.38.52a.35.35,0,0,0,.24.39C63.48,27.14,63.64,27,63.66,26.74ZM46.25,15.49c.17,0,.22,0,.44-.2a.66.66,0,0,0,.2-.27c0-.07-.27-.24-.39-.23l-.16,0c-.23.06-.29.13-.33.33s0,.11,0,.16A.29.29,0,0,0,46.25,15.49ZM75.83,31.06h-.17a.46.46,0,0,0-.17,0c-.13.07-.19.17-.16.24a.2.2,0,0,0,.12.12c.28.09.59,0,.84.19s.23.09.3,0a.38.38,0,0,0,0-.15.22.22,0,0,0-.13-.3l-.15-.07A1.88,1.88,0,0,0,75.83,31.06ZM23.12,2.87a.24.24,0,0,0,.29-.14.88.88,0,0,0,.05-.15.31.31,0,0,0-.08-.31.38.38,0,0,0-.46,0,.38.38,0,0,0-.09.13.43.43,0,0,0,0,.32A.21.21,0,0,0,23.12,2.87ZM72.31,27.81a.86.86,0,0,0,0-.17.26.26,0,0,0-.28-.16.21.21,0,0,0-.29.13.53.53,0,0,0,0,.33.3.3,0,0,0,.22.24.39.39,0,0,0,.32-.06A.27.27,0,0,0,72.31,27.81ZM68,9.43a.21.21,0,0,0-.08-.3c-.08-.05-.18,0-.28.07a1.37,1.37,0,0,0-.33.39s0,.11,0,.16a.28.28,0,0,0,.16.28s.1,0,.14-.07A1,1,0,0,0,68,9.43ZM44.51,38a.29.29,0,0,0-.3.16.4.4,0,0,0,0,.34c.06.13.16.15.3.14s.31-.07.3-.32S44.75,38,44.51,38ZM64,31.55a.29.29,0,0,0-.11-.33.57.57,0,0,0-.29.13l-.14.1a.46.46,0,0,0-.12.47c.06.13.15.17.26.12A.62.62,0,0,0,64,31.55ZM77.43,46.69a.88.88,0,0,0-.16,0,.38.38,0,0,0-.16.27.26.26,0,0,0,.1.3.37.37,0,0,0,.45,0,.3.3,0,0,0,.09-.3C77.71,46.73,77.66,46.68,77.43,46.69ZM63.61,3.94c.06,0,.13,0,.17,0l.43-.31c.12-.11.12-.21,0-.28a.32.32,0,0,0-.33,0,1.3,1.3,0,0,0-.42.32.78.78,0,0,0-.1.15A.23.23,0,0,0,63.61,3.94ZM64,46c0-.23-.06-.32-.29-.34s-.32.05-.34.3,0,.31.29.33S64,46.19,64,46ZM80.2,9.22s-.07-.09-.11-.11a.35.35,0,0,0-.33,0,.22.22,0,0,0-.13.3.52.52,0,0,0,.06.15c.08.07.18,0,.29-.07A1.24,1.24,0,0,0,80.2,9.22ZM77.37,9c-.12,0-.21.08-.21.19s.33.46.45.47a.74.74,0,0,0,.12-.13.39.39,0,0,0-.06-.45A.3.3,0,0,0,77.37,9Zm.76-5.84a.25.25,0,0,0,.29-.11l-.06-.16a.71.71,0,0,0-.1-.14A.52.52,0,0,0,78,2.61a.25.25,0,0,0-.15.25.28.28,0,0,0,.15.29A.43.43,0,0,0,78.13,3.2ZM65.44,31.45c0-.23-.15-.28-.34-.16a.75.75,0,0,0-.22.25c0,.05,0,.1,0,.14s.28.13.46.05A.2.2,0,0,0,65.44,31.45Zm11.93-4.3a.27.27,0,0,0-.12-.29c-.1,0-.46.31-.46.44s.07.09.12.11a.4.4,0,0,0,.32,0A.25.25,0,0,0,77.37,27.15ZM52.81,12a.32.32,0,0,0-.31.44c.06.16.13.17.26.07a1.05,1.05,0,0,0,.23-.24s0-.09.08-.14A.22.22,0,0,0,52.81,12Zm15.51,3.5a.34.34,0,0,0-.41-.24s-.09.06-.14.1a.68.68,0,0,0,.16.3.53.53,0,0,0,.29.16A.24.24,0,0,0,68.32,15.48ZM54.84,41.81s.09-.07.11-.12a.43.43,0,0,0-.18-.42.4.4,0,0,0-.31,0,.15.15,0,0,0-.08.11C54.38,41.56,54.73,41.85,54.84,41.81Zm24.4-9.58a.32.32,0,0,0-.34.3.33.33,0,0,0,.11.29.69.69,0,0,0,.15-.07.88.88,0,0,0,.24-.23c.1-.11.1-.2,0-.26A.4.4,0,0,0,79.24,32.23Zm-5.46,2.48c0-.05,0-.11,0-.17a.32.32,0,0,0-.26-.18.31.31,0,0,0-.31.12c0,.08,0,.19.09.29a.69.69,0,0,0,.28.2A.37.37,0,0,0,73.78,34.71Zm6.52-2.16a.27.27,0,0,0-.3.15A.45.45,0,0,0,80,33a.67.67,0,0,0,.11.14c.12,0,.5-.35.49-.48A.26.26,0,0,0,80.3,32.55ZM64.63,21.11a.73.73,0,0,0-.21-.26c-.1-.08-.19-.13-.28-.08s-.11.32,0,.45a.34.34,0,0,0,.44,0A.39.39,0,0,0,64.63,21.11Zm0,1.44a.7.7,0,0,0-.22-.26c-.11-.08-.2-.13-.28-.09s-.11.34,0,.45a.34.34,0,0,0,.31.1A.19.19,0,0,0,64.66,22.55ZM65.45,4a.25.25,0,0,0-.11-.31.42.42,0,0,0-.28.14L64.94,4a1.09,1.09,0,0,0-.08.15.23.23,0,0,0,.24.18C65.3,4.34,65.41,4.26,65.45,4ZM53.82,18.48a.37.37,0,0,0-.23.41.78.78,0,0,0,.1.15.72.72,0,0,0,.29-.17.5.5,0,0,0,.16-.29A.3.3,0,0,0,53.82,18.48ZM76.43,26.4h.35a.5.5,0,0,0,.13-.12q.09-.12-.12-.24c-.11,0-.23,0-.35,0s-.4.14-.32.24A.34.34,0,0,0,76.43,26.4Zm-3.82-1.25c0-.13-.35-.51-.46-.5a.74.74,0,0,0-.12.13.45.45,0,0,0,.13.47.52.52,0,0,0,.33,0Zm-.43.57a.47.47,0,0,0-.17.43s.07.09.11.11.16,0,.23-.12A.45.45,0,0,0,72.18,25.72Zm-26.49-.64c0,.1.07.16.19.21a.24.24,0,0,0,.3-.12c0-.1-.07-.16-.19-.2A.21.21,0,0,0,45.69,25.08ZM65.7,24a.45.45,0,0,0-.12.06.25.25,0,0,0-.06.3c.06.14.15.17.22.07a.32.32,0,0,0,.06-.3C65.79,24,65.73,24,65.7,24Zm9.66,5.49a.25.25,0,0,0,.3.15c.14,0,.2-.08.17-.18a.69.69,0,0,0-.15-.07A.29.29,0,0,0,75.36,29.45Zm-22-12.34s0,.09,0,.12a.3.3,0,0,0,.3.09.24.24,0,0,0,.13-.11c0-.09,0-.17-.15-.2A.32.32,0,0,0,53.32,17.11Zm-5.9-4.42c-.06,0-.12,0-.16,0s-.06.07-.09.11a.21.21,0,0,0,.29.12,1.1,1.1,0,0,0,.14-.09C47.61,12.76,47.55,12.7,47.42,12.69Zm2.23.13a.26.26,0,0,0,.24.16.32.32,0,0,0,.27-.15.21.21,0,0,0-.24-.15A.4.4,0,0,0,49.65,12.82Zm14.53.41a.34.34,0,0,0,.32.11l.13-.12s0-.1-.09-.12a.29.29,0,0,0-.32,0S64.19,13.19,64.18,13.23Zm2.49.67A.25.25,0,0,0,67,14c.14,0,.2-.08.17-.17L67,13.79A.29.29,0,0,0,66.67,13.9ZM80.54,3s-.08,0-.11,0a.26.26,0,0,0-.08.28c.05.14.14.17.21.09a.26.26,0,0,0,.07-.28S80.57,3.06,80.54,3ZM65.63,14.3a.26.26,0,0,0,.3.09s.09-.06.13-.1a.23.23,0,0,0-.08-.11.31.31,0,0,0-.31,0S65.64,14.27,65.63,14.3Zm.44,6.42a.58.58,0,0,0-.14.05.32.32,0,0,0-.09.32c.09.13.17.17.26.09a.27.27,0,0,0,.07-.32C66.16,20.81,66.1,20.77,66.07,20.72Zm-1.36-1.93c0-.13-.07-.2-.17-.21a.2.2,0,0,0-.13.27.29.29,0,0,0,.18.23A.28.28,0,0,0,64.71,18.79ZM63.6,4.91a.26.26,0,0,0-.21-.2.26.26,0,0,0-.31.13c0,.11.1.16.23.19A.22.22,0,0,0,63.6,4.91ZM57.35,47.82a.3.3,0,0,0,0,.52.3.3,0,0,0,.16-.26A.3.3,0,0,0,57.35,47.82Zm-2.44.23a.25.25,0,0,0,.17,0c.17-.07.18-.16,0-.23a.29.29,0,0,0-.16,0c-.15,0-.22.06-.18.16A.21.21,0,0,0,54.91,48.05Zm10-1.63a.19.19,0,0,0,0,.13.31.31,0,0,0,.31.1s.1-.08.12-.13,0-.18-.15-.21A.29.29,0,0,0,64.9,46.42Zm-30.49-.09a.47.47,0,0,0-.17,0,.58.58,0,0,0-.1.12.23.23,0,0,0,.3.13.67.67,0,0,0,.14-.09C34.61,46.41,34.55,46.35,34.41,46.33Zm28.4-1a.22.22,0,0,0-.19.19.21.21,0,0,0,.11.27c.09,0,.14-.07.17-.18A.21.21,0,0,0,62.81,45.32Zm-10.43-41a1,1,0,0,0,.18,0,.6.6,0,0,0,.12-.11c0-.1-.06-.16-.2-.19a.28.28,0,0,0-.3.12A.24.24,0,0,0,52.38,4.32Zm-10,37.31s-.12,0-.16,0-.07.07-.1.11a.22.22,0,0,0,.3.13,1.1,1.1,0,0,0,.14-.09Q42.57,41.66,42.36,41.63ZM63.16,44s0-.09,0-.12a.34.34,0,0,0-.31-.11s-.1.08-.12.13,0,.18.15.21A.29.29,0,0,0,63.16,44Zm14.47.28s-.07-.09-.11-.11a.34.34,0,0,0-.3.05c-.11.08-.1.16,0,.22a.33.33,0,0,0,.29,0S77.61,44.31,77.63,44.27Zm-2.31.21a.31.31,0,0,0-.29.11.17.17,0,0,0,0,.12.23.23,0,0,0,.27.13.28.28,0,0,0,.24-.17A.3.3,0,0,0,75.32,44.48Zm6-40.72s-.09,0-.11,0a.36.36,0,0,0-.12.3.6.6,0,0,0,.12.11c.09,0,.17,0,.21-.13A.32.32,0,0,0,81.27,3.76Zm0,30.42a.35.35,0,0,0-.57,0,.29.29,0,0,0,.28.14A.37.37,0,0,0,81.32,34.18ZM63.5,34.09a.29.29,0,0,0-.15.26.27.27,0,0,0,.13.27.26.26,0,0,0,.15-.25A.3.3,0,0,0,63.5,34.09Zm.73,6.52a.35.35,0,0,0-.18.28.26.26,0,0,0,.15.27.25.25,0,0,0,.17-.25A.39.39,0,0,0,64.23,40.61Zm1.88.11A.47.47,0,0,0,66,40.6a.25.25,0,0,0-.29-.05c-.15.06-.17.14-.07.22a.35.35,0,0,0,.3,0S66.07,40.76,66.11,40.72Zm-22,.48a.19.19,0,0,0-.17-.2.21.21,0,0,0-.12.28.25.25,0,0,0,.18.2A.21.21,0,0,0,44.09,41.2Zm36.12-4.83a.75.75,0,0,0-.06-.13.28.28,0,0,0-.31-.05c-.14.06-.16.16-.07.23a.33.33,0,0,0,.31.06A.45.45,0,0,0,80.21,36.37Zm-.82,1.18a.37.37,0,0,0,.17-.29A.29.29,0,0,0,79.4,37a.31.31,0,0,0-.16.28A.4.4,0,0,0,79.39,37.55ZM73,38.37c-.13,0-.18.1-.14.19a.6.6,0,0,0,.11.12.44.44,0,0,0,.3-.1s0-.08,0-.11A.28.28,0,0,0,73,38.37ZM65.41,9a.3.3,0,0,0,.28-.13c.06-.09-.16-.24-.31-.21a.24.24,0,0,0-.2.18A.23.23,0,0,0,65.41,9Zm2.1-.58a.2.2,0,0,0-.27-.12.39.39,0,0,0-.26.16s.06.09.1.12a.31.31,0,0,0,.42,0A.45.45,0,0,0,67.51,8.44ZM79,10.75l.12,0c.12-.05.15-.14.1-.28a.35.35,0,0,0-.18-.23.31.31,0,0,0-.17.26A.23.23,0,0,0,79,10.75ZM77.29,8.1a.27.27,0,0,0-.13,0,.36.36,0,0,0-.11.32.8.8,0,0,0,.13.13c.08,0,.18,0,.22-.15A.35.35,0,0,0,77.29,8.1Zm-.07,4.43a.26.26,0,0,0,.16-.28c0-.14-.09-.19-.19-.17a.44.44,0,0,0-.08.15A.28.28,0,0,0,77.22,12.53ZM49.81,7.05a.27.27,0,0,0-.25-.17A.29.29,0,0,0,49.3,7a.21.21,0,0,0,.24.16A.38.38,0,0,0,49.81,7.05ZM48.69,8.54s0-.09,0-.11a.29.29,0,0,0-.3-.09c-.14.05-.17.14-.11.21a.26.26,0,0,0,.3.07ZM82.4,36.28l-.12-.06a.69.69,0,0,1-.13.11c.08.14.17.17.24.07S82.4,36.32,82.4,36.28Zm-1.53,3.59-.08.12h.14ZM52.23,35.52l-.06.11.1.11c.12-.06.15-.14.06-.21S52.26,35.52,52.23,35.52Zm12.46.09c-.07-.18-.15-.18-.23,0l.11.13ZM46.5,37.31c-.17.06-.17.13,0,.22l.12-.1Zm35.17.49-.09-.12-.11.1.09.11Zm-5,.37L76.51,38l-.12.11.1.11Zm4,0c0-.14-.12-.15-.2,0l.09.11Zm-37.23.72-.12-.13-.13.12.12.13Zm34-.38-.08-.1c-.14.05-.15.11,0,.19Zm-35.82,0c-.06-.16-.12-.16-.2,0l.09.11A.52.52,0,0,0,41.52,38.51ZM57.09,40c-.07-.16-.15-.17-.25,0l.12.13Zm20.25-8-.1-.12-.12.11a.52.52,0,0,1,.1.11ZM73.6,30.64l.09-.12h-.14ZM52.26,34.28l.08-.13h-.13Zm27.84.34c.14,0,.15-.1,0-.18l-.11.08Zm-13.41.2s-.06.07,0,.1a.35.35,0,0,0,.1.11c.12-.07.14-.14.05-.21Zm6.65-1.35-.08-.12-.11.1a1,1,0,0,0,.08.11Zm-27.56.62-.08.11h.13ZM48.39,6l-.09-.1c-.14,0-.15.11,0,.19ZM66.72,50.18c.15,0,.15-.11,0-.19l-.11.09Zm-12.28.36.09-.11-.14,0Zm11.32-3.33c-.05-.14-.12-.15-.21,0l.1.11ZM77.7,6l-.1-.12-.13.1.1.12ZM64.56,48.18l-.12.1c.08.18.16.18.24,0ZM65,5.86l-.11.08c0,.14.12.15.2,0ZM56.62,50.72l-.08.12.13,0Zm5.06,0-.1.08c.05.14.11.14.19,0ZM52.4,5.6l-.12-.13-.13.12.12.12Zm13,35.82-.12-.08,0,.13Zm15.1-34.3L80.56,7l-.13,0ZM79.5,7,79.39,7l0,.13ZM52,6.69c0-.15-.11-.15-.19,0l.09.1ZM56,45l-.09-.09c-.14,0-.15.1,0,.17Zm-18.42.71-.1-.12c-.17.07-.18.15,0,.24Zm20.59-2.52c0-.15-.11-.16-.18,0l.08.1A.39.39,0,0,1,58.15,43.22ZM65,44.65l-.1-.11s-.08.06-.11.1,0,.08,0,.1a.12.12,0,0,0,.1,0A.26.26,0,0,0,65,44.65ZM68.3,19l-.09-.11c-.16.05-.16.12,0,.21Zm.37-1.42c-.06-.18-.14-.18-.23,0l.11.13Zm.6-6.82.09-.11-.13,0ZM46.15,18.35l.12-.09-.11-.11c-.11,0-.16.06-.11.15S46.12,18.34,46.15,18.35Zm35.79,2-.11.1c.06.16.13.17.21,0Zm-3.25,1.29c.15-.05.16-.12,0-.2l-.12.09ZM48.78,10.3l-.12-.13-.12.12.11.12Zm22.77,9.07-.1-.13-.12.1.1.12ZM53.82,13.86s-.08-.06-.11,0l-.12.09c.07.13.15.15.22.07S53.82,13.9,53.82,13.86Zm.37-2.1-.1-.13-.12.11.1.11Zm26.39,2.17c0-.14-.11-.15-.18,0l.08.1ZM51,11.75c-.08-.18-.16-.18-.25,0l.12.13ZM48.39,14.3l-.09-.12-.12.09.09.1Zm31.49-1.82c-.06-.15-.13-.16-.21,0l.11.1A.39.39,0,0,1,79.88,12.48Zm-16.28.71c-.06-.16-.14-.17-.22,0l.1.12Zm15.54,3.27-.09-.11-.12.09.09.1Zm-30.86.82.13-.11L48.3,17l-.13.11ZM52.35,15l-.11-.06-.12.11c.07.13.16.15.23.06S52.35,15,52.35,15ZM22,15.73l-.09-.1c-.14,0-.15.11,0,.18Zm48.85,0c0-.14-.12-.15-.2,0l.1.09Zm7,0,.12.08,0-.13Zm3.74-.08-.08.11.14,0Zm-17,.34-.06.12.1.12c.12-.07.15-.15.07-.22S64.57,16,64.54,16ZM53.63,27.65l.12.08v-.14ZM66.5,8.85l-.12-.13c-.17.08-.18.16,0,.25Zm-11,17.62-.11.1c.06.15.13.16.2,0Zm-2.9.38-.09.11.14,0Zm13,2.9-.06.11.11.12c.12-.08.15-.15.06-.22S65.65,29.75,65.61,29.75Zm13.9-1.38-.1-.11-.11.1a.28.28,0,0,0,0,.11s.09,0,.11,0S79.49,28.41,79.51,28.37ZM64.58,23.6l-.08.11h.13Zm-10.15-.87c.17-.07.18-.16,0-.25l-.12.12ZM79.86,3.07,79.74,3l0,.12Zm-17.48.08q.21-.06,0-.18l-.11.09Zm3.37-.81c0-.15-.11-.15-.18,0l.09.1Zm-2.16,0c-.05-.14-.11-.14-.19,0l.09.09A.39.39,0,0,0,63.59,2.35Zm-1.47,0L62,2.28l0,.12ZM22.24,54.16c.15,0,.16-.11,0-.19l-.11.09Zm40.08-50,.11.08,0-.13Zm19.73-.34-.11-.13-.11.11.1.12Z"/><path class="cls-1" d="M87.91,39.77a.37.37,0,0,1-.32-.1,1,1,0,0,1-.36-.78c0-.41,0-.83,0-1.24a.62.62,0,0,1,.23-.47l.64-.61.53-.07c0,.17,0,.34,0,.51a.74.74,0,0,0,.13.48,2.88,2.88,0,0,0,.22.27.21.21,0,0,0,.27.07s.07-.09.1-.13a6,6,0,0,0,0-1.2l.35.06a.94.94,0,0,1,.48.23,3.32,3.32,0,0,1,.37.38.53.53,0,0,1,.16.29,1.71,1.71,0,0,1-.11.14.7.7,0,0,0-.14.32.3.3,0,0,0,.12.32.28.28,0,0,0,.29-.12.89.89,0,0,0,.29-.8,5.15,5.15,0,0,1,0-.55l.32-.42a2.16,2.16,0,0,0-.58-.66.69.69,0,0,0-.31-.15l-.15.1a.93.93,0,0,1-.67.15.89.89,0,0,0-.36,0c-.28,0-.44.13-.17.45a.58.58,0,0,1,.14.32H88.6a.32.32,0,0,0-.15-.29.56.56,0,0,0-.16-.07l-.53,0a.43.43,0,0,1-.19-.29,5.81,5.81,0,0,1,0-1.25c.07-.16.2-.28.22-.46a1,1,0,0,1-.27-.83c0-.18,0-.36,0-.54a2.17,2.17,0,0,1,.07-.35.25.25,0,0,1,.12-.13.61.61,0,0,1,.34-.07.74.74,0,0,1,.12.13.76.76,0,0,1,0,.34L88,33c-.08.11-.05.21.11.26a.61.61,0,0,1,.48.46c.1.16.2.3.41.28h.18a.56.56,0,0,0,.34-.09.36.36,0,0,0,.18-.29l0,0a1,1,0,0,0,.49-.06.41.41,0,0,0,.22-.23c0-.28,0-.56,0-.84h.41a.33.33,0,0,0,.1.26s.09,0,.11,0a.3.3,0,0,0,.11-.25.52.52,0,0,1,.31.14,4.38,4.38,0,0,0,.66.55.42.42,0,0,0,.33-.07.59.59,0,0,0,0-.13.46.46,0,0,0-.07-.16c-.06-.12,0-.21.11-.27a1.43,1.43,0,0,0,.3-.16c.16-.13.13-.31.15-.48a.38.38,0,0,0-.38-.46h-.34a.28.28,0,0,0-.16-.29l-.1.1a.28.28,0,0,0,.3.14c0,.11,0,.22,0,.33s-.15.33-.47.37l-.16,0a.41.41,0,0,0-.3.12.34.34,0,0,0-.11.29h-.41a.36.36,0,0,0-.11-.26.14.14,0,0,0-.11,0,.27.27,0,0,0-.1.25.53.53,0,0,1-.18-.05c-.25-.16-.5-.31-.77-.45a2.9,2.9,0,0,0-.85-.27.69.69,0,0,1-.46-.25l-.4-.37a.64.64,0,0,1-.23-.47c0-.6,0-1.2,0-1.8a.31.31,0,0,1,.08-.15s.09,0,.13,0a4.88,4.88,0,0,1,.53.48,1.79,1.79,0,0,0,.28.22c.18.13.18.13.47,0a.6.6,0,0,1,.15-.09.78.78,0,0,0,.35-.07,3.76,3.76,0,0,0,.62-.64c.27-.27.27-.36,0-.79a1.22,1.22,0,0,1-.11-.7.39.39,0,0,1,.07-.16s.09,0,.13,0a1,1,0,0,0,.32.12.65.65,0,0,0,.16-.09,1,1,0,0,0,.31-.42.41.41,0,0,0-.21-.45,2.38,2.38,0,0,0-.53-.11.7.7,0,0,1-.32-.14.8.8,0,0,1-.3-.44c0-.17,0-.35-.09-.53s-.13-.18-.25-.12c-.32.17-.67.28-1,.48a.57.57,0,0,1-.34,0,.28.28,0,0,1-.17-.29,1.26,1.26,0,0,0-.2-.68.33.33,0,0,1,0-.33.52.52,0,0,0,0-.5.31.31,0,0,1,.08-.33l.22-.28c.18-.21.19-.22,0-.44a1.36,1.36,0,0,1-.15-.51c0-.48,0-1,0-1.44s.06-1,0-1.44c0-.3,0-.6,0-.9a.33.33,0,0,1,.18-.29.88.88,0,0,1,.52-.06l0,0a.56.56,0,0,1-.21.47.66.66,0,0,0-.14.5.55.55,0,0,0,.12.33,1.92,1.92,0,0,1,.32.64.67.67,0,0,0,.28.22.57.57,0,0,0,.73-.31,1.21,1.21,0,0,0,.05-.18,1.24,1.24,0,0,1,.2-.67,1.11,1.11,0,0,0,.12-.69c0-.42,0-.38.16-.67a1.4,1.4,0,0,0,.1-.16c0-.1-.11-.21-.15-.31s.26-.52.42-.51.08.07.09.12a3.9,3.9,0,0,1,.09.89,6.49,6.49,0,0,0,0,1.08.24.24,0,0,0-.27.1.2.2,0,0,0,0,.13.22.22,0,0,0,.26.12v.33a.47.47,0,0,0,0,.17.32.32,0,0,0,.12.11.18.18,0,0,0,.21-.16.4.4,0,0,0-.06-.32.31.31,0,0,0-.28-.14.67.67,0,0,0,0-.37,1,1,0,0,0,.18,0,1.05,1.05,0,0,0,.56-.66,5.24,5.24,0,0,1,.23-.48c0-.11,0-.2-.14-.23s-.25-.06-.29-.18,0-.2.07-.32-.12-.31-.12-.48a1.61,1.61,0,0,0,.24-.47.55.55,0,0,0,0-.18c0-.12,0-.23,0-.35a2.2,2.2,0,0,1,0-.36l.29-.46c0-.16,0-.34,0-.52a.29.29,0,0,0,.29-.15l-.1-.09a.26.26,0,0,0-.14.29.42.42,0,0,1-.31-.15c-.07-.1-.1-.25,0-.5,0,0,0-.11.08-.16s0-.21-.11-.26a.32.32,0,0,0-.33.05.56.56,0,0,0-.15.32c0,.15-.12.2-.2.14a.34.34,0,0,1-.09-.15,7.71,7.71,0,0,1,0-1.44c0-.28.12-.36.47-.38a.74.74,0,0,0,.5-.15,1.12,1.12,0,0,1,.64-.3,1.49,1.49,0,0,0,.28-.23c.23-.23.23-.34,0-.58s-.34-.25-.63-.09a2.13,2.13,0,0,1-.49.21.7.7,0,0,0-.46.25l-.25.27c-.1.11-.2.15-.28.09a.26.26,0,0,1-.09-.14,1.64,1.64,0,0,0-.39-.61c-.1-.12-.21-.13-.28,0a.37.37,0,0,0,0,.34,1.17,1.17,0,0,0,.17.31,1.2,1.2,0,0,1,.15.52,1.08,1.08,0,0,1,0,.18,7.23,7.23,0,0,0,0,1.8.44.44,0,0,0,.08.15,1.5,1.5,0,0,1,.24,1,1,1,0,0,1-.15.51l-.09.16c-.12.22-.12.26,0,.49l.16.32a.23.23,0,0,1-.29.13c-.19,0-.34-.11-.37-.32a.79.79,0,0,0-.13-.33,1.4,1.4,0,0,1-.1-.16.56.56,0,0,1,.06-.66.49.49,0,0,0,.09-.49c0-.13-.13-.12-.27,0a5.46,5.46,0,0,0-.77.75c-.12.13-.21.13-.27,0s-.08-.34-.24-.46a.49.49,0,0,0-.16.31c0,.18,0,.36,0,.54a.48.48,0,0,0,.39.51l.18,0c.38.06.45.16.26.4a1.12,1.12,0,0,0-.15.69.45.45,0,0,1-.16.31.61.61,0,0,1-.34-.05.37.37,0,0,1-.12-.13.51.51,0,0,1-.07-.17,2.56,2.56,0,0,1-.3-.65,4.73,4.73,0,0,1,0-.54,1.35,1.35,0,0,0-.22-.67.69.69,0,0,1-.09-.34,3.47,3.47,0,0,1,0-.72.41.41,0,0,1,.21-.27l.17-.06a.41.41,0,0,0,.18-.59c-.3-.41-.29-.41-.3-.81,0-.12,0-.24,0-.36a1.2,1.2,0,0,1,.07-.53,1.19,1.19,0,0,1,.21-.29.44.44,0,0,0,0-.5,3,3,0,0,0-.19-.3.49.49,0,0,1-.06-.17c0-.24,0-.48,0-.72,0-.84,0-1.68,0-2.53a.38.38,0,0,1,.14-.31.87.87,0,0,1,.38.33.69.69,0,0,1,.18.49c0,.6,0,1.2,0,1.8a1,1,0,0,0,.19.49,2.44,2.44,0,0,1,.25.48c.08.22.16.22.38,0a.57.57,0,0,0,.15-.79l-.08-.17A1,1,0,0,1,89,8.56C88.94,8,89,7.48,89,6.94a.61.61,0,0,0-.1-.34c-.18-.24-.24-.55-.4-.8a1.53,1.53,0,0,1-.2-.69l0-.17a4.21,4.21,0,0,0-.44-.58.61.61,0,0,1-.06-.81c.08-.13.06-.21-.09-.27a1.75,1.75,0,0,1-.6-.4A.5.5,0,0,1,87,2.23a.71.71,0,0,0,.1-.14.67.67,0,0,1,.45-.27,1.47,1.47,0,0,1,.36,0c.48,0,1,0,1.44,0a1.45,1.45,0,0,1,.85.26c.18.13.25.12.49,0A1.48,1.48,0,0,1,91,1.89l.32.18a.64.64,0,0,0,.34.05A.65.65,0,0,0,91.83,2c.25-.13.29-.12.46,0a.7.7,0,0,1,.19.28l-.19.3a.6.6,0,0,0-.07.35.82.82,0,0,0,.12.51l.22.29a.48.48,0,0,1,0,.17,1,1,0,0,0-.92.41.69.69,0,0,0-.07.15.31.31,0,0,0,.31.13.53.53,0,0,0,.32-.12,3.07,3.07,0,0,0,.25-.26A.37.37,0,0,0,92.6,4a.31.31,0,0,0,.3-.16c.08-.15.07-.36.23-.47a.63.63,0,0,1,.34-.08s.1-.07.13-.12,0-.17-.14-.24a1,1,0,0,0-.18,0C93.05,2.8,93,2.7,93,2.48a.83.83,0,0,1,.38-.58.51.51,0,0,1,.16-.09,3.79,3.79,0,0,0,.68-.26l.48.22a.69.69,0,0,1,.38.35,4.45,4.45,0,0,0,.26.48.55.55,0,0,1,0,.51,3.51,3.51,0,0,0-.31.65.83.83,0,0,1-.09.16,1.37,1.37,0,0,1-.39.37,1.06,1.06,0,0,1-.53,0,.38.38,0,0,0-.31.14s0,.11,0,.16l.09.15a.44.44,0,0,1,0,.5,1.61,1.61,0,0,0-.24.85,4.87,4.87,0,0,0,0,.54,7.79,7.79,0,0,1,0,1.08,3.37,3.37,0,0,0,0,.55c0,.6,0,1.2,0,1.8a.93.93,0,0,1-.22.48c-.12.14-.24.28-.34.42a.52.52,0,0,0-.07.35.52.52,0,0,0,.28.2.48.48,0,0,1,.36.53,1.27,1.27,0,0,1-.11.52c-.23.45-.22.51,0,.81l.23.28a1.66,1.66,0,0,1,.26.47,1.33,1.33,0,0,0,.47.53.47.47,0,0,0,.51,0,1.94,1.94,0,0,0,.29-.21c.26-.25.48-.53.72-.81a.94.94,0,0,0,.19-.49c0-.12,0-.24,0-.36s.08-.47.36-.56l.15-.09c.1-.08.08-.17,0-.29s0-.11-.08-.17a.28.28,0,0,1,.26-.19.49.49,0,0,0,.32-.14l-.14-.33a.82.82,0,0,1,0-.85c.05-.11.12-.21.18-.32.09-.35.33-.63.45-1s.3-.52.42-.8.29-.2.46-.21.25.05.36,0a1,1,0,0,1,.66.23.38.38,0,0,0,.49,0,.23.23,0,0,0,.11-.13.56.56,0,0,0,0-.34,1.16,1.16,0,0,0-.53-.47l-.34-.11s-.08-.08-.12-.12a1.83,1.83,0,0,0,.31-.84.7.7,0,0,1,.1-.34c.15-.27.14-.27,0-.48a.77.77,0,0,1-.16-.5,5.78,5.78,0,0,0,0-.72,1.47,1.47,0,0,0-.08-.35c0-.05-.06-.1-.09-.16l-.15-.32c0-.3-.06-.6-.08-.9V2.07a1.12,1.12,0,0,1,.25-.66A3.08,3.08,0,0,1,99.86.9a.92.92,0,0,1,.85-.15l.49.26a4.81,4.81,0,0,0,1.42.05c.23,0,.23,0,.49.17a1.3,1.3,0,0,0,.15.1.41.41,0,0,0,.34,0c.12,0,.17-.15.2-.27.09-.3.2-.39.49-.41h.36l.36,0a1.74,1.74,0,0,1,1-.32,1.38,1.38,0,0,0,.68-.2,1,1,0,0,1,.51-.15,3.25,3.25,0,0,1,.54,0c.23,0,.3.06.4.3s.24.41.31.64,0,.37,0,.55a3.25,3.25,0,0,1,0,.54.79.79,0,0,1-.22.48,1.13,1.13,0,0,1-.58.4.41.41,0,0,0-.22.26c-.14.34-.14.34-.33.26s-.33-.12-.47,0c-.29.3-.58.6-.88.89-.13.13-.14.21,0,.27a.41.41,0,0,0,.34,0,2.19,2.19,0,0,1,.49-.23.37.37,0,0,1,.18,0c.16.06.17.15,0,.27s-.16.19-.24.27l-.25.26A1.3,1.3,0,0,0,106,6a.79.79,0,0,1-.2.49c-.19.23-.38.47-.58.69a2.29,2.29,0,0,0-.39.6.43.43,0,0,1-.28.21,2,2,0,0,0,0-.35.34.34,0,0,0-.17-.29.3.3,0,0,0-.15.29.6.6,0,0,0,0,.16.35.35,0,0,0,.29.16,1.7,1.7,0,0,1-.27.84,1.3,1.3,0,0,0-.14.32c-.09.2-.15.22-.42.08a4.59,4.59,0,0,1-.62-.33c-.13-.1-.22-.1-.29,0a.52.52,0,0,0-.11.33.67.67,0,0,0,.09.34,1.36,1.36,0,0,0,.65.58c.29.11.28.13.16.37a1.54,1.54,0,0,0-.15.32,1.19,1.19,0,0,1-.25.47,6.22,6.22,0,0,0-.43.58,3.4,3.4,0,0,0-.07.34.93.93,0,0,1-.2.49c-.17.23-.28.36-.56.16a.58.58,0,0,0-.33-.14c-.12,0-.23,0-.35-.06l0,.05a1.3,1.3,0,0,0,0-.52.34.34,0,0,0-.56-.1c0,.08,0,.19.06.3a.84.84,0,0,1,.14.32l0-.05c-.26.07-.28.08-.38.32a2.28,2.28,0,0,1-.26.46.67.67,0,0,0-.1.34.27.27,0,0,0-.28.13c0,.11,0,.17.16.12s.14-.14.11-.27a4.17,4.17,0,0,0,.71,0,.41.41,0,0,1,.31.16.47.47,0,0,1,0,.33.2.2,0,0,1-.15.1c-.17,0-.35,0-.53.07a.66.66,0,0,0-.31.16.94.94,0,0,0-.27.45,3.14,3.14,0,0,1,.18.31.35.35,0,0,1,0,.33c-.06.14-.15.13-.28,0s-.22-.1-.3,0a.37.37,0,0,0-.07.33.51.51,0,0,0,.07.15.86.86,0,0,0,.1.16.45.45,0,0,1,0,.64c-.21.22-.21.22-.72.09l-.17,0H98a3,3,0,0,1,0-.52.5.5,0,0,0,0-.17.37.37,0,0,0-.46-.36.42.42,0,0,0-.25.22c-.09.21-.17.42-.44.46a.35.35,0,0,0-.27.38c0,.12,0,.23,0,.35a.68.68,0,0,1-.31-.14A1.71,1.71,0,0,0,96,17a.38.38,0,0,0-.33,0c-.14.05-.15.14,0,.26a3.47,3.47,0,0,0,.62.59c.12.1.21.09.26-.06a1.51,1.51,0,0,0,0-.52h.35a.5.5,0,0,0,.33-.12.85.85,0,0,1,.29-.17,1.57,1.57,0,0,1,.53-.05c0,.12,0,.24,0,.36a1.3,1.3,0,0,0,.16.69c.13.23.1.28-.12.39l-.17.07a.55.55,0,0,0-.26.61.59.59,0,0,0,.17.31.9.9,0,0,0,.16,0l.49-.23a.42.42,0,0,0,.28-.41,1.12,1.12,0,0,1,.47-.93.42.42,0,0,1,.49,0l.13.12a.89.89,0,0,1,.22.29.82.82,0,0,1-.13.31.58.58,0,0,0-.09.34c0,.25,0,.49,0,.73a1,1,0,0,0,.23.66,2.35,2.35,0,0,0,.36.41,9.2,9.2,0,0,1,.77.76.61.61,0,0,1,.13.33.33.33,0,0,0,.22.25,1.24,1.24,0,0,1,.33.15l.13.12c0,.18,0,.36.07.54a.34.34,0,0,0,.2.26,1.42,1.42,0,0,1,.6.39.46.46,0,0,1,.08.64.84.84,0,0,0-.19.5,3.05,3.05,0,0,0-.52.05c-.12,0-.17.13-.18.26a.25.25,0,0,0,.14.28.69.69,0,0,0,.15-.07.84.84,0,0,0,.36-.57c.25,0,.49,0,.72,0a.48.48,0,0,1,.17.05c.12.08.13.18.05.31l-.08.16c.17.21.43.17.64.25a.41.41,0,0,1,.26.22,1.42,1.42,0,0,1,0,.36c0,.42,0,.84,0,1.26s0,.85,0,1.27,0,.84,0,1.25c-.07.12-.12.23-.18.33s-.13.28,0,.67a1.15,1.15,0,0,1,.14.51c0,.31,0,.61,0,.91,0,1.26,0,2.53,0,3.79a3.37,3.37,0,0,0,.19.32.89.89,0,0,1,.18.5,4.82,4.82,0,0,1,0,.54,1.52,1.52,0,0,0,.16.69.87.87,0,0,1,.07.17l-.13.33a1,1,0,0,0,0,.87,1.36,1.36,0,0,1,.14.33,1.23,1.23,0,0,1,0,.54.36.36,0,0,1-.22.26.63.63,0,0,0-.47.67.82.82,0,0,1-.2.5c-.11.14-.23.27-.35.4a.75.75,0,0,0-.12.69c0,.14.11.22.2.2a.29.29,0,0,0,.15-.09,7,7,0,0,1,1-1c.11-.09.2-.14.29-.12a.58.58,0,0,1,.16.31,3.31,3.31,0,0,0,.15.33.7.7,0,0,1,.1.34c0,.24,0,.49,0,.73a.59.59,0,0,1,0,.17.29.29,0,0,1-.27.19.23.23,0,0,0-.14-.28l-.11.09a.36.36,0,0,0,.3.14.53.53,0,0,0,0,.18,4.85,4.85,0,0,1,.31.65c.07.16.19.3.28.46a.58.58,0,0,1-.07.51l-.26.25c-.27.25-.28.35-.07.59s.17.17.24.26a.67.67,0,0,1,.21.48c0,.12,0,.24,0,.36a2.17,2.17,0,0,0,0,.72c0,.17.17.32.23.48a.47.47,0,0,1,0,.35.37.37,0,0,1-.12.13,1.24,1.24,0,0,0-.33.15.35.35,0,0,0-.06.47.3.3,0,0,0,.32.09.52.52,0,0,0,.16-.06l.31-.18a.48.48,0,0,1,.15.31c0,.12,0,.23,0,.35a1.64,1.64,0,0,1-.28,1.2.47.47,0,0,0-.06.35c.07.15.16.18.29.08s.22-.09.28,0a.35.35,0,0,1,.06.17,1.68,1.68,0,0,0,.28.84,1.35,1.35,0,0,1,.15.52c0,.12,0,.24,0,.36,0,.6,0,1.2,0,1.81a2.33,2.33,0,0,0,0,.53,1.44,1.44,0,0,0,.16.33,1.31,1.31,0,0,1,.11.52.68.68,0,0,1-.12.51,3.67,3.67,0,0,0-.25.48,2,2,0,0,1-.19.31c-.07.12,0,.21.12.26a.58.58,0,0,0,.18,0c.16,0,.16,0,.34-.37l.1-.14c.1,0,.16.07.18.22a1.13,1.13,0,0,1,0,.18c0,.3,0,.6,0,.9s0,.84,0,1.27a.9.9,0,0,0,.16.51,2,2,0,0,1,.17.51,1.53,1.53,0,0,0,.26.66c.09.16.1.35.2.5s.27.54.42.79.13.36-.11.62c-.09.08-.18.15-.27.24a1.11,1.11,0,0,1-.82.31,14.59,14.59,0,0,1-1.62,0,1.13,1.13,0,0,1-.66-.26l-.44-.32a.24.24,0,0,0-.16-.07L104.41,64a2.76,2.76,0,0,1-.71-.07c-.17-.06-.32-.17-.49-.25a2.21,2.21,0,0,1-.76-.47c-.14-.12-.25-.26-.38-.38a.78.78,0,0,0-.48-.23l-.18,0a.51.51,0,0,1-.42-.29c-.1-.22-.24-.42-.34-.64a3.06,3.06,0,0,0-.22-.49,1.35,1.35,0,0,1-.23-.67A1.48,1.48,0,0,0,100,60a.67.67,0,0,1,0-.52,1.89,1.89,0,0,1,.13-.33,1.39,1.39,0,0,1-.21-.87,1.09,1.09,0,0,0,0-.18,1.2,1.2,0,0,1,.17-.69,1.71,1.71,0,0,0,.07-.18c0-.17,0-.35,0-.53l-.15-.32a.56.56,0,0,1,0-.52.32.32,0,0,1,.3-.15c.23-.1.24-.17.06-.37a3.08,3.08,0,0,1-.24-.27.67.67,0,0,1-.2-.48c0-.25,0-.49,0-.73a15.63,15.63,0,0,0-.11-2.16l-.24-.49a.48.48,0,0,1,.14-.48l.17-.05,0,0a.43.43,0,0,0,.05.16.4.4,0,0,0,.42.2.34.34,0,0,0,.24-.19,1,1,0,0,0,.06-.16l0,0a.52.52,0,0,0,.37-.35,4.3,4.3,0,0,1,.24-.48,2.59,2.59,0,0,1,.31-.65c.11-.13.11-.23,0-.28a.35.35,0,0,0-.33.06.49.49,0,0,0-.16.31.33.33,0,0,1-.39.27l0,0a2.44,2.44,0,0,1,0-.54.81.81,0,0,1,.16-.5c.18-.24.26-.54.44-.79a1,1,0,0,0,.15-.51.91.91,0,0,1,.14-.51c.08-.12.11-.23,0-.3a.28.28,0,0,0-.33-.06.45.45,0,0,0-.14.1.75.75,0,0,0-.09.15c-.09.29-.31.52-.4.81a1.09,1.09,0,0,1-.18.31c-.11.14-.23.27-.34.42a.87.87,0,0,0-.18.5c0,.3,0,.6,0,.9a.37.37,0,0,1-.15.31.39.39,0,0,1-.19-.25c0-.6,0-1.2,0-1.8,0-.18,0-.36,0-.53l.33-.46c0-.17,0-.35,0-.53h.54c.11,0,.47-.38.48-.5s0-.09-.1-.11a.35.35,0,0,0-.33,0A1.91,1.91,0,0,0,100,46a.39.39,0,0,0-.13.32.37.37,0,0,1-.27-.18.47.47,0,0,1,0-.48c.05-.09.12-.19.17-.29s0-.11,0-.16h0a.75.75,0,0,0,.13-.06.46.46,0,0,0,.26-.34l0,.06a.42.42,0,0,0,.3-.13.34.34,0,0,0,.09-.32c0-.06,0-.11,0-.17a.45.45,0,0,0-.4-.47l-.34-.05,0,0a.43.43,0,0,0,0-.17c-.1-.15-.21-.29-.32-.43a1.25,1.25,0,0,0-.18-.5,1.48,1.48,0,0,1-.19-.68,1.1,1.1,0,0,0,0-.18c-.06-.1-.11-.21-.18-.31a.54.54,0,0,1,0-.66,1.3,1.3,0,0,0,.1-.15l-.17-.32a.65.65,0,0,1-.11-.33c0-.48,0-1,0-1.44,0-.12,0-.24,0-.36a2.59,2.59,0,0,0-.26-.46.41.41,0,0,1,0-.5.3.3,0,0,0,0-.45.62.62,0,0,1-.14-.33.23.23,0,0,0,.27-.1c0-.11,0-.17-.12-.13a.26.26,0,0,0-.11.27.3.3,0,0,1-.27-.18,1.23,1.23,0,0,1,0-.71,3.54,3.54,0,0,0,.26-.47.77.77,0,0,0,0-.52c0-.17-.14-.24-.39-.32a.38.38,0,0,1-.3-.39c0-.18,0-.36-.06-.54a1.46,1.46,0,0,0-.16-.5,1.24,1.24,0,0,1-.15-.52c0-.24,0-.48,0-.71a3.21,3.21,0,0,1,.19-.31c.16-.25.11-.48-.14-.57a1.25,1.25,0,0,1-.57-.41c-.15-.18-.12-.28.15-.35a.48.48,0,0,0,.29-.17.77.77,0,0,0-.16-.31L97,29.43l-.8-.72a.69.69,0,0,0-.51-.15,3.19,3.19,0,0,0-.53.06.43.43,0,0,0-.29.19l-.12,1.25a.3.3,0,0,1-.6,0L94,29.56l-.09-.17a1.14,1.14,0,0,1-.19-.67.66.66,0,0,0-.2-.48,1,1,0,0,0-.48.51.34.34,0,0,0,0,.34,3,3,0,0,1,.23.48.55.55,0,0,1,0,.18c0,.12,0,.24,0,.36a2,2,0,0,0,.17.32,1,1,0,0,1,.14.51c0,.18,0,.36,0,.54a1.31,1.31,0,0,1-.24.84.6.6,0,0,0,0,.16,1.53,1.53,0,0,0,.35.41.63.63,0,0,1,.2.29,1,1,0,0,0,.23.47.83.83,0,0,1,.11.15.9.9,0,0,1,0,.16.29.29,0,0,1-.14.31c-.14-.08-.26-.24-.45-.19a1.13,1.13,0,0,0-.44.55.52.52,0,0,0,0,.18c0,.24,0,.48,0,.72a1,1,0,0,1-.18.68.8.8,0,0,0-.15.5c0,.24,0,.48,0,.72s-.15.49-.39.5h-.36l-.36,0a.24.24,0,0,0-.16-.27l-.1.1a.27.27,0,0,0,.29.15.32.32,0,0,0,.07.31l.24.24a.52.52,0,0,0,.74.06l.25-.2h.52l0,0c0,.38,0,.48.18.66a4,4,0,0,1,.45.55s.08.1.08.16a1.1,1.1,0,0,1-.07.69,2.48,2.48,0,0,0-.17.32,1.09,1.09,0,0,0,0,.69,3.38,3.38,0,0,0,.22.47,5.6,5.6,0,0,1,0,1.08.93.93,0,0,1-.17.49.6.6,0,0,1-.26.24c-.1,0-.19,0-.29-.11a.17.17,0,0,0-.3,0c-.11.1-.2.14-.29.09a.53.53,0,0,1-.14-.11.84.84,0,0,1-.2-.29.69.69,0,0,1,.07-.15l.32-.43a1.19,1.19,0,0,0,.09-.15.25.25,0,0,0-.27-.16,2.17,2.17,0,0,1-.36,0,4.35,4.35,0,0,0,0-.51.28.28,0,0,0-.22-.22.29.29,0,0,0-.31.08.2.2,0,0,0,0,.29c.16.15.31.33.57.32a.38.38,0,0,1-.33.32c-.33,0-.67,0-1,0a.51.51,0,0,1-.32-.07.34.34,0,0,1-.15-.28l0,.05a.61.61,0,0,0,.3-.15.45.45,0,0,0,.12-.32,1.3,1.3,0,0,1,0-.34.33.33,0,0,1,.19-.25c.1-.06.21-.09.3-.15a.53.53,0,0,0,.18-.46.5.5,0,0,0-.35-.52.72.72,0,0,0-.33,0,2.15,2.15,0,0,1,.22-.86,1.31,1.31,0,0,0-.11-.12.86.86,0,0,0-.52-.09.57.57,0,0,0-.43.26,3.13,3.13,0,0,0-.2.3s0,.11,0,.17.08.29.31.36a2.11,2.11,0,0,0,.71,0,.29.29,0,0,1-.21.27A2,2,0,0,0,90,41l-.24.27a.52.52,0,0,0-.11.33l0,0a.44.44,0,0,0-.3.16.45.45,0,0,0-.09.34,2.11,2.11,0,0,1,0,.35.35.35,0,0,1-.42.22l-.15-.08-.3-.21c-.21.1-.37.3-.61.36s-.21.13-.15.2a.46.46,0,0,0,.15.09A1.1,1.1,0,0,0,88,43l.7.05.32.19a.49.49,0,0,0,.49.09.39.39,0,0,0,.19-.29.36.36,0,0,1,.2-.26.35.35,0,0,1,.19.29.49.49,0,0,0,.2.28h.18a2.48,2.48,0,0,0,.72,0,2.92,2.92,0,0,0,.47-.23.53.53,0,0,1,.35,0,.3.3,0,0,1,.13.12c.06.11.1.22.15.32a1,1,0,0,0,.21.29.66.66,0,0,0,.47.23l.54,0a.79.79,0,0,1,.61.3.72.72,0,0,1,.23.47c0,.42,0,.84,0,1.26a1.14,1.14,0,0,1-.13.51,1,1,0,0,0-.13.51,2.8,2.8,0,0,1-.06.71c-.1.15-.21.29-.32.43a1.35,1.35,0,0,0,0,.53c-.13,0-.25,0-.29.12s0,.19.13.15a.25.25,0,0,0,.13-.29A.45.45,0,0,1,94,49a.57.57,0,0,1,.1.34c0,.18,0,.36,0,.54a11.38,11.38,0,0,0,0,1.43c0,.42,0,.84,0,1.26,0,.12,0,.24,0,.37a1.9,1.9,0,0,1,.31.83,1.15,1.15,0,0,0,.17.5,1,1,0,0,1,.17.51c0,.3.05.6.08.89a.7.7,0,0,0,.12.34c.2.3.25.67.44,1a.44.44,0,0,1,.06.16,3.26,3.26,0,0,1,0,1.08.48.48,0,0,1-.19.29.49.49,0,0,1-.17.06,2.33,2.33,0,0,0-.68.21,1.18,1.18,0,0,1-.52.13h-.18a1.35,1.35,0,0,1-.53,0c-.19-.07-.21-.27-.3-.43a.25.25,0,0,0-.13-.12.47.47,0,0,0-.33,0,2.71,2.71,0,0,1-.45.3.91.91,0,0,1-.53-.05.53.53,0,0,1-.23-.26,1.77,1.77,0,0,0-.06-.17.19.19,0,0,0-.29-.09c-.28.1-.29.11-.49,0a1,1,0,0,0-.33-.13,1.54,1.54,0,0,1-.52-.14,1.73,1.73,0,0,0-.86-.23,1.61,1.61,0,0,1-.84-.27.49.49,0,0,0-.51,0c-.11,0-.21.1-.32.15-.14-.13-.12-.33-.21-.48s-.25-.26-.3-.44a.55.55,0,0,1,0-.18.4.4,0,0,1,.09-.15,1.61,1.61,0,0,1,.58-.41c.27-.12.3-.14.38-.34a2.73,2.73,0,0,1,.27-.47c.14-.21.15-.28.14-.68l-.05,0a2,2,0,0,0,.35,0,.42.42,0,0,0,.3-.17,2.39,2.39,0,0,1-.16-.32.38.38,0,0,1,.06-.48.59.59,0,0,1,.16.06.26.26,0,0,0,.32,0l.13-.11a.93.93,0,0,0,.31-.62c0-.12,0-.24,0-.35a.71.71,0,0,0-.19-.48,1,1,0,0,0-.57.63h0l-.51.08s-.1.08-.12.12a3.36,3.36,0,0,1-.41.76c0,.11,0,.23,0,.34l0,.17,0,0a.51.51,0,0,1-.34-.11c-.25-.18-.28-.17-.37.05s-.37.62-.49,1a.27.27,0,0,1-.28.18l0,0c0-.24,0-.48,0-.72a1.87,1.87,0,0,1,.23-.86.64.64,0,0,0,.09-.34c0-.24,0-.48,0-.71a.85.85,0,0,1,.15-.51c.07-.1.13-.2.19-.3s-.19-.29-.26-.45a.41.41,0,0,1,.24-.42,3.35,3.35,0,0,1,.89-.07.33.33,0,0,0,.15-.1c.06-.07,0-.18-.07-.28s-.26-.25-.39-.37a.39.39,0,0,1-.14-.31,12.52,12.52,0,0,0,0-1.62,1.22,1.22,0,0,1,0-.17.34.34,0,0,1,.35-.32c.46,0,.47,0,.59.16a.35.35,0,0,1-.3.16.38.38,0,0,0-.22.43.33.33,0,0,0,.22.25.92.92,0,0,0,.52,0,.42.42,0,0,0,.25-.24,1.1,1.1,0,0,1,.34-.61,1.91,1.91,0,0,0,.33-.42.34.34,0,0,0,0-.34c-.06-.09-.16-.07-.29,0a.75.75,0,0,1-.15.09.87.87,0,0,1-.52-.68l-.05.06a1.87,1.87,0,0,0,.34,0,.49.49,0,0,0,.42-.47.86.86,0,0,0,0-.17c0-.4,0-.8-.08-1.2a.35.35,0,0,0-.2-.26.63.63,0,0,0-.33-.06h-.51c0-.12,0-.24,0-.35s0-.23-.34-.37-.27-.16-.28-.4,0-.24,0-.36V41a.92.92,0,0,1,.38-.77.38.38,0,0,1,.33-.1l-.05,0a2.32,2.32,0,0,0,.07.52l.32.41a.21.21,0,0,0,.3.06.79.79,0,0,0,.44-.69,4.73,4.73,0,0,0,0-.52,1.16,1.16,0,0,0-.27-.62.63.63,0,0,0-.13-.11.19.19,0,0,0-.3,0,1.77,1.77,0,0,0-.38.58Zm9.78-28.95a.32.32,0,0,0,.08.28.29.29,0,0,0,.28.08,1.82,1.82,0,0,1-.26.45c-.08.12-.06.22.09.26a.48.48,0,0,0,.33-.07.28.28,0,0,0,.14-.3.29.29,0,0,0,0-.16.28.28,0,0,0-.29-.14.36.36,0,0,0-.1-.27.28.28,0,0,0-.26-.1.28.28,0,0,0-.16-.29l-.1.12A.23.23,0,0,0,97.69,10.82ZM101.63,43a.25.25,0,0,0,.28-.14l-.1-.09a.5.5,0,0,1-.42.41l.1.11A.26.26,0,0,0,101.63,43Zm-3.21-12.3a.24.24,0,0,0,.13.28l.1-.08a.29.29,0,0,0-.28-.15.28.28,0,0,0-.15-.31l-.1.12A.24.24,0,0,0,98.42,30.71Zm4.31,5.08a.25.25,0,0,0,.28-.15l-.11-.1a.22.22,0,0,0-.15.27c-.13,0-.24,0-.27.11s0,.18.14.14S102.76,35.92,102.73,35.79ZM102,10.45a.26.26,0,0,0,.11.27c.1,0,.16,0,.11-.11a.24.24,0,0,0-.26-.11c0-.11,0-.22,0-.33a.47.47,0,0,0,0-.17.17.17,0,0,0-.1-.12c-.08,0-.16,0-.2.14a.32.32,0,0,0,.07.31A.34.34,0,0,0,102,10.45Zm2.17,39.43a.25.25,0,0,0,.11.29c.11,0,.18,0,.13-.13a.22.22,0,0,0-.28-.11.33.33,0,0,0-.15-.3.44.44,0,0,0-.16-.06.26.26,0,0,0-.29.15.31.31,0,0,0,.29.16C104,49.87,104.09,49.88,104.2,49.88ZM93.35,20.22a.83.83,0,0,0,0,.15.33.33,0,0,0,.38.2.34.34,0,0,0,.23-.19c0-.05,0-.11,0-.16l.35,0c.25,0,.26,0,.38-.3s.27-.39.36-.62a.91.91,0,0,0,0-.17,1.12,1.12,0,0,1,.25-.83.83.83,0,0,0-.17-.3.54.54,0,0,0-.45-.24,1.36,1.36,0,0,1-.68-.18c-.28-.18-.37-.11-.37.25a2.17,2.17,0,0,0,0,.36.36.36,0,0,0,.42.22l.47-.23a.41.41,0,0,1,.13.32.58.58,0,0,1-.12.32c-.07.09-.12.2-.19.3s0,.35-.08.53l-.17.31a1.09,1.09,0,0,0-.08.15l0,.18H93.3c0-.26,0-.52,0-.77h.53a.71.71,0,0,0,.14-.1.4.4,0,0,0-.17-.58,3.65,3.65,0,0,1-.64-.28s-.11,0-.13.08a.42.42,0,0,0,0,.33c.14.19.34.34.34.6H93a.43.43,0,0,0-.16,0,.2.2,0,0,0-.13.08c-.06.07,0,.18.05.27A1,1,0,0,0,93.35,20.22Zm2.52.38a.23.23,0,0,0-.13-.28c-.11,0-.18,0-.15.15s.14.16.27.14a1.93,1.93,0,0,0,0,.34.39.39,0,0,0,.16.3.92.92,0,0,0,.28-.19,1.15,1.15,0,0,0,.2-.29.37.37,0,0,0-.29-.16A1,1,0,0,0,95.87,20.6ZM90.09,50.24a.28.28,0,0,0,.16.29l.09-.1a.24.24,0,0,0-.29-.14.52.52,0,0,1,.14-.31.37.37,0,0,0,.13-.3c0-.12-.32-.16-.46-.06a.27.27,0,0,0-.11.31A.35.35,0,0,0,90.09,50.24Zm10.46-15.18a2.47,2.47,0,0,0,.72,0,.35.35,0,0,0,.27-.17l-.14-.11c-.12,0-.24,0-.36,0a.44.44,0,0,0-.34.05.29.29,0,0,0-.12.31.25.25,0,0,0-.29.15l.1.11A.26.26,0,0,0,100.55,35.06Zm2.55,21.36a1.06,1.06,0,0,0-.51.07.4.4,0,0,0-.13.46s.08.06.12.09a1.43,1.43,0,0,0,.42-.31.34.34,0,0,0,.09-.32.22.22,0,0,0,.29-.16l-.11-.11A.24.24,0,0,0,103.1,56.42Zm2.18-5.08a.35.35,0,0,0,.12.31,1.86,1.86,0,0,1,.26.23q.18.18.27,0a1,1,0,0,0,0-.17.26.26,0,0,0-.18-.27,1.25,1.25,0,0,0-.51,0,1.3,1.3,0,0,0,0-.34c0-.29-.19-.43-.44-.36l-.15.07a.35.35,0,0,0,.1.56A.92.92,0,0,0,105.28,51.34Zm-4-18.09a.87.87,0,0,0,.36,0,1.09,1.09,0,0,0,.17-.05.3.3,0,0,0,.15-.3.28.28,0,0,0-.16-.29.44.44,0,0,0-.34,0,.27.27,0,0,0-.15.3,2.17,2.17,0,0,1,0,.36c-.25,0-.31.11-.36.37a3.18,3.18,0,0,1-.87-.09.51.51,0,0,1-.16-.09l.15-.3a.88.88,0,0,0,.1-.68c-.06-.22-.19-.25-.36-.11s-.24.26-.37.38a1.13,1.13,0,0,0-.24.25c0,.2.13.29.22.42A1.14,1.14,0,0,1,99,34a.32.32,0,0,0-.14.29.89.89,0,0,1,.27.61.74.74,0,0,0,.13.12c.08,0,.17,0,.25-.13a.56.56,0,0,1,.08-.34c.07-.1.08-.09.44.11l.15-.06a1.76,1.76,0,0,0,.7-.78.47.47,0,0,0,0-.17.8.8,0,0,0,.15,0C101.19,33.51,101.29,33.42,101.27,33.25ZM99.46,30v-.33a.81.81,0,0,0,0-.16.32.32,0,0,0-.1-.13c-.08,0-.17,0-.21.13a.33.33,0,0,0,.08.3.47.47,0,0,0,.29.14.42.42,0,0,0,0,.16,3.56,3.56,0,0,0,.7.75.75.75,0,0,0,.15.09.24.24,0,0,0,.11-.3c0-.05,0-.11-.05-.15a2.57,2.57,0,0,0-.34-.39c-.11-.1-.11-.1-.49-.11Zm5.46,29.62a.25.25,0,0,0,.15.27l.09-.1a.27.27,0,0,0-.26-.15l.06-.51.3-.42v-.17a.32.32,0,0,0-.15-.28.48.48,0,0,0-.16.08.86.86,0,0,0-.43.86.32.32,0,0,0,.1.32A.31.31,0,0,0,104.92,59.66Zm-1.84-15.21.17,0a.55.55,0,0,0,.15-.08,1.33,1.33,0,0,1,.8-.27.3.3,0,0,0,.15-.07c.09-.07.06-.15-.08-.23a3.1,3.1,0,0,0-.86,0,.38.38,0,0,0-.25.21,1.3,1.3,0,0,0,0,.52l-.33,0h-.17a.33.33,0,0,0-.23.39c0,.12.09.2.19.2a.3.3,0,0,0,.15-.07A.89.89,0,0,0,103.08,44.45Zm0-3.21a1.13,1.13,0,0,0-.18,0,5.36,5.36,0,0,1-.62.34c-.22.08-.21.19,0,.38a.74.74,0,0,1,.13.12.52.52,0,0,0,.49.12.44.44,0,0,0,.18-.3,2.48,2.48,0,0,0,0-.72c.14,0,.25,0,.29-.11s0-.19-.14-.15S103.08,41.1,103.11,41.24ZM90.1,30c-.06,0-.13,0-.17,0a2.91,2.91,0,0,1-.64.31c-.21.06-.25.21-.11.38s.32.36.49.53a.44.44,0,0,0,.15.08c.11.05.21,0,.25-.14a4.69,4.69,0,0,0,0-1.24.48.48,0,0,0,.17,0,.33.33,0,0,0,.17-.27.24.24,0,0,0-.15-.29l-.12.13A3.13,3.13,0,0,0,90.1,30Zm13.7,9.35a.29.29,0,0,0,.29-.14.56.56,0,0,0,.07-.16,2.41,2.41,0,0,0,0-.71.51.51,0,0,0,0-.17,1.36,1.36,0,0,0-.45-.53.37.37,0,0,0-.48,0c-.06.08,0,.18,0,.3a.9.9,0,0,1,.17.3.94.94,0,0,0,.15.32,1.37,1.37,0,0,1,.19.3,1.29,1.29,0,0,1,.08.52,2.07,2.07,0,0,0-.5,0,.26.26,0,0,0-.14.09.35.35,0,0,0,0,.44.27.27,0,0,0,.3.07c.19,0,.26-.14.28-.36S103.79,39.5,103.8,39.39Zm-7.59-13.7a.32.32,0,0,0-.16-.28l-.09.1a.26.26,0,0,0,.29.13.53.53,0,0,1,0,.18,3.87,3.87,0,0,1-.45.55c-.1.11-.14.21-.07.28a.37.37,0,0,0,.33.08l.46-.28c.3,0,.6-.05.89-.09a.26.26,0,0,0,.15-.09c.06-.08,0-.17-.08-.28a1.18,1.18,0,0,0-.27-.23.76.76,0,0,0-.16.06c-.26.13-.27.13-.46,0A.72.72,0,0,0,96.21,25.69Zm4.33-19.17a.25.25,0,0,0-.1-.27c-.11,0-.17,0-.12.12a.26.26,0,0,0,.27.1,1.88,1.88,0,0,0,.06.53c0,.12.16.15.29.16a.26.26,0,0,0,.29-.14c.08-.15.08-.35.26-.44a1.72,1.72,0,0,1,.51-.11.5.5,0,0,0,.29-.16.45.45,0,0,0-.13-.11,2.43,2.43,0,0,1-.63-.3l-.16-.07a.31.31,0,0,0-.4.22C100.9,6.28,100.83,6.49,100.54,6.52Zm-.68,30a.36.36,0,0,0-.18,0,2,2,0,0,0-.49.52.45.45,0,0,0,.17.46,1.7,1.7,0,0,0,.71.06.75.75,0,0,0,.34-.09c.19-.11.16-.3.17-.47a.46.46,0,0,0-.1-.34.38.38,0,0,0-.3-.16.9.9,0,0,1,.13-.32c.17-.28.17-.32,0-.38a.32.32,0,0,0-.32,0,.26.26,0,0,0-.1.13A1.14,1.14,0,0,0,99.86,36.54Zm-6.5-14.47a1.45,1.45,0,0,0-.36,0c-.22,0-.24,0-.37.32a.43.43,0,0,1-.21.26l-.32-.14a.24.24,0,0,0-.19.24,2.44,2.44,0,0,1,0,.53l-.3.43a.62.62,0,0,0,.24.63l.14.1.16.08a.37.37,0,0,0,.15-.3.93.93,0,0,1,.3-.8c.09-.08.17-.17.25-.25l.17-.07c.24-.09.3-.17.32-.37s0-.47,0-.71c.18,0,.35,0,.53.06a1,1,0,0,0,.34-.07s.09-.07.12-.12a.38.38,0,0,0,0-.33.39.39,0,0,0-.25-.22,1.51,1.51,0,0,0-.7-.05c-.34.07-.4.18-.2.46A1,1,0,0,1,93.36,22.07Zm0,3.58c0,.36,0,.72,0,1.08a.69.69,0,0,0,.37.58c.12.08.2,0,.27-.11l.33-.63a.59.59,0,0,0,0-.35,1.66,1.66,0,0,0-.32-.43.72.72,0,0,0-.51-.12h-.18a2,2,0,0,0,0-.34.6.6,0,0,1,.33-.56.92.92,0,0,1,.32-.14,1.09,1.09,0,0,0,.31-.14,1.3,1.3,0,0,1,.8-.28.52.52,0,0,0,.31-.14.73.73,0,0,0-.15-.29.81.81,0,0,1-.15-.31h.36c.22,0,.26,0,.46-.18l.12-.13c.08-.11.11-.22.06-.3a.3.3,0,0,0-.32-.1l-.16,0c-.17.08-.24.24-.36.37a.37.37,0,0,0-.12.31.56.56,0,0,1-.37-.35L94.73,23a.33.33,0,0,0-.29-.16c-.14,0-.25,0-.3.16a1.41,1.41,0,0,1-.46.73l-.15.11c-.14.13-.14.13-.27.44s-.07.18-.38.33a.42.42,0,0,0-.22.58,1.3,1.3,0,0,0,.35.39A.43.43,0,0,0,93.34,25.65ZM89,55h-.18c-.4,0-.4,0-.48.17a.94.94,0,0,0-.07.34c0,.12,0,.24,0,.36l-.29.46a1.09,1.09,0,0,1,0,.18.29.29,0,0,0,.19.27.4.4,0,0,0,.34,0,1.22,1.22,0,0,0,.27-.23,1.23,1.23,0,0,1,.78-.43l.17,0a1.17,1.17,0,0,0,.48-.25,1.7,1.7,0,0,0,.46-.54c0-.11,0-.2-.15-.24a1,1,0,0,0-.35,0,.28.28,0,0,1-.32-.13c0-.09.06-.16.19-.21a1.21,1.21,0,0,0,.18,0,.32.32,0,0,0,.19-.27.25.25,0,0,0-.13-.3.94.94,0,0,0-.52-.08.63.63,0,0,0-.46.25A1.12,1.12,0,0,0,89,55ZM102,7.84a2,2,0,0,1,.49-.55,1.21,1.21,0,0,0,.1-.14c.08-.12,0-.21-.1-.27A.67.67,0,0,0,102,7a12.16,12.16,0,0,1-1,1,4.4,4.4,0,0,0-.38.37.31.31,0,0,0-.08.15.4.4,0,0,0,.06.34,1.6,1.6,0,0,0,.54.46.46.46,0,0,0,.33-.06c.1-.07.09-.17,0-.29a1.3,1.3,0,0,1-.1-.15c0-.09.09-.14.22-.19.31-.12.35-.19.39-.52C102,8.05,102,7.93,102,7.84ZM99,21.67h-.12a1.44,1.44,0,0,0-.83.22,1.37,1.37,0,0,1-.49.18.22.22,0,0,0-.13.12c0,.08,0,.16.16.22a1.26,1.26,0,0,1,.49.18c.35.2.39.2.62,0a2.6,2.6,0,0,1,.47-.24,1.42,1.42,0,0,0,.41-.32.38.38,0,0,0,.15-.27.4.4,0,0,0-.33-.11A2.23,2.23,0,0,1,99,21.67ZM97.1,25.3a.54.54,0,0,1,.13,0,.48.48,0,0,0,.33-.1,2.45,2.45,0,0,0,.72-.75.37.37,0,0,0-.2-.55,1,1,0,0,0-.35,0,.44.44,0,0,0-.4.28.9.9,0,0,1-.47.49.31.31,0,0,0-.21.4C96.69,25.19,96.86,25.29,97.1,25.3Zm5,14.48c.26-.27.26-.27.25-.61a1.13,1.13,0,0,0,0-.18.38.38,0,0,0-.2-.26.5.5,0,0,0-.34,0,1.21,1.21,0,0,0-.14.1,1.2,1.2,0,0,1-.46.24.77.77,0,0,0-.29.19c-.22.2-.3.29-.16.39a.54.54,0,0,0,.32.13A9.21,9.21,0,0,0,102.14,39.78Zm-11-4.59a1.7,1.7,0,0,0,.1.14.3.3,0,0,0,.32.06.34.34,0,0,0,.24-.24,3.35,3.35,0,0,0,0-.71.76.76,0,0,0-.21-.48,1,1,0,0,0-.27-.23l-.17,0a.26.26,0,0,0-.3.12,1.5,1.5,0,0,1,.23.85ZM99.73,24c0-.1-.11-.2-.17-.3a.75.75,0,0,1,0-.16,2.91,2.91,0,0,0,.17-.3.42.42,0,0,0,0-.33.22.22,0,0,0-.12-.11.46.46,0,0,0-.33.06,1.94,1.94,0,0,0-.49.5.51.51,0,0,0,.13.47l.4.33C99.5,24.19,99.67,24.23,99.73,24Zm-.32,1.89c-.07-.15-.09-.2-.12-.25l-.09-.16a.78.78,0,0,1,.18-.3l.25-.26c.12-.11.13-.21,0-.28a.41.41,0,0,0-.33,0,2.91,2.91,0,0,0-.69.57.79.79,0,0,0-.14.31c0,.05.06.11.1.15l.24.27C99,26.08,99.06,26.08,99.41,25.91Zm5.24-20.33a.83.83,0,0,1,.09-.16.23.23,0,0,0,0-.3,1.07,1.07,0,0,0-.41-.32,1.31,1.31,0,0,0-.12.11.58.58,0,0,0-.1.32,5.15,5.15,0,0,0,0,1,1.36,1.36,0,0,0,.12.12.34.34,0,0,0,.46,0,.49.49,0,0,0,.1-.32C104.79,5.88,104.72,5.73,104.65,5.58Zm-3,36.27a1.09,1.09,0,0,1,0-.18.28.28,0,0,0-.12-.32c-.1,0-.17.06-.23.19a1,1,0,0,1-.36.6,4.79,4.79,0,0,0-.53.48.34.34,0,0,0-.12.29.33.33,0,0,0,.33.09,1,1,0,0,0,.31-.15,3.15,3.15,0,0,0,.59-.67A.77.77,0,0,0,101.64,41.85ZM89.19,12.54a.63.63,0,0,0,.15-.49.56.56,0,0,0-.09-.34,1.25,1.25,0,0,0-.37-.39.4.4,0,0,0-.34-.06.43.43,0,0,0-.23.43,1.59,1.59,0,0,0,.43.57A1.71,1.71,0,0,0,89.19,12.54Zm17.88,50s-.08-.12-.13-.14-.16,0-.2.17a1,1,0,0,1-.15.33,1.14,1.14,0,0,0-.18.3,1.06,1.06,0,0,0-.06.53c0,.13.11.21.21.21a.21.21,0,0,0,.16-.08.89.89,0,0,0,.33-.61C107,63,107.06,62.73,107.07,62.5ZM91.18,50.58c.06,0,.13,0,.17,0A2.85,2.85,0,0,0,92,50c.16-.21.14-.3-.07-.37l-.18,0A5.68,5.68,0,0,1,91,50a.29.29,0,0,0-.13.31C90.87,50.51,90.94,50.58,91.18,50.58Zm9.24-12.36c-.17,0-.29-.17-.45-.23a.49.49,0,0,0-.17,0c-.22,0-.27.19-.13.35a1.32,1.32,0,0,0,.4.34l.34,0a.55.55,0,0,0,.18,0,1,1,0,0,0,.54-.41c.1-.12.08-.21-.08-.25A.67.67,0,0,0,100.42,38.22Zm-9,13a.26.26,0,0,0-.27-.15.47.47,0,0,0-.17,0,2.08,2.08,0,0,0-.43.3.55.55,0,0,0-.09.48,1.8,1.8,0,0,0,.29.43.22.22,0,0,0,.15.08c.1,0,.19-.05.22-.19s0-.35.08-.51A4,4,0,0,1,91.45,51.17Zm5.69-37.11a1.81,1.81,0,0,0-.68.1.23.23,0,0,0-.12.12.42.42,0,0,0,0,.33.25.25,0,0,0,.31.14s.12,0,.16,0a2.42,2.42,0,0,1,.49-.23.36.36,0,0,0,.28-.19C97.6,14.2,97.36,14.06,97.14,14.06Zm8.73,40.67a1.42,1.42,0,0,1-.31-.61.32.32,0,0,0-.28-.18.22.22,0,0,0-.26.14l.23.47c0,.11,0,.23,0,.35a.91.91,0,0,0,0,.17.45.45,0,0,0,.1.14c.07.08.17.06.28,0A.67.67,0,0,0,105.87,54.73ZM89.8,46.08a.65.65,0,0,0,.17.3.67.67,0,0,0,.3.19.63.63,0,0,0,.2-.29,1.07,1.07,0,0,1,.16-.32c.08-.12.11-.22,0-.32a.53.53,0,0,0-.12-.14,3,3,0,0,0-.3-.19.65.65,0,0,0-.21.28C90,45.76,89.88,45.92,89.8,46.08Zm4.75-18.76s.07.09.12.11a3.29,3.29,0,0,1,.61.34.47.47,0,0,0,.17,0,.3.3,0,0,0,.3-.12c0-.05,0-.11-.08-.15a1.48,1.48,0,0,0-.38-.37.53.53,0,0,0-.33-.08A.48.48,0,0,0,94.55,27.32Zm-3-19.73c.12,0,.24,0,.35,0a.64.64,0,0,0,.3-.19l0-.18A.3.3,0,0,0,92,6.93a.44.44,0,0,0-.34,0,1,1,0,0,0-.29.22.36.36,0,0,0-.12.29A.32.32,0,0,0,91.57,7.59ZM91,44.36a.6.6,0,0,0-.52-.59c-.25,0-.35.08-.27.28a4.14,4.14,0,0,1,.19.49c.07.21.24.25.38.09S91,44.45,91,44.36ZM98.7,12.64c0-.14,0-.22-.16-.25l-.16.08a4.1,4.1,0,0,0-.5.52.25.25,0,0,0-.08.15c0,.11.07.17.21.19h.18a1.5,1.5,0,0,0,.48-.52A.47.47,0,0,0,98.7,12.64ZM89.23,49.77a.29.29,0,0,0,0-.13,3.55,3.55,0,0,0-.61-.32l-.15,0a.24.24,0,0,0-.1.31,1,1,0,0,0,.41.54.16.16,0,0,0,.15,0A.89.89,0,0,0,89.23,49.77Zm1.41-41.5a.49.49,0,0,0,.32,0c.13-.08.1-.18-.11-.39l-.12-.11a.39.39,0,0,0-.46,0,.24.24,0,0,0-.13.29c0,.11,0,.22.17.25A1.19,1.19,0,0,0,90.64,8.27Zm2.9,46.58a.75.75,0,0,0,.15-.09,2,2,0,0,0,.24-.26c.13-.17.12-.44,0-.49s-.19,0-.29.12a.57.57,0,0,0-.25.46C93.37,54.73,93.42,54.82,93.54,54.85ZM88.43,21.08a.45.45,0,0,0-.11.13.51.51,0,0,0,.22.6.58.58,0,0,0,.3.13.31.31,0,0,0,.14-.29.39.39,0,0,0-.12-.31A1.27,1.27,0,0,0,88.43,21.08Zm10.72-.89.15-.06c.12-.06.14-.15.14-.28a.28.28,0,0,0-.13-.29c-.16,0-.33-.06-.46.09a.39.39,0,0,0,0,.45A.26.26,0,0,0,99.15,20.19Zm-8.45.22a.26.26,0,0,0-.3-.12l-.15,0a.3.3,0,0,0-.12.13,1.21,1.21,0,0,0-.07.5.34.34,0,0,0,.17.28.28.28,0,0,0,.22-.2A4.86,4.86,0,0,1,90.7,20.41Zm3.82-4.35a1.29,1.29,0,0,0,.28.42.44.44,0,0,0,.46.11c.15-.06.17-.15.08-.26a2.78,2.78,0,0,0-.21-.27.44.44,0,0,0-.31-.13A.35.35,0,0,0,94.52,16.06ZM101.91,36s0-.11-.08-.16a1.46,1.46,0,0,0-.42-.32.35.35,0,0,0-.33,0c-.1.06-.09.15,0,.27a1.44,1.44,0,0,0,.38.36C101.58,36.22,101.91,36.07,101.91,36Zm-3.22-4.1a.25.25,0,0,0-.11-.32l-.16-.05a.23.23,0,0,0-.31.1.41.41,0,0,0,.07.47A.31.31,0,0,0,98.69,31.87Zm-8-27.29c.09,0,.27-.15.4-.33a.5.5,0,0,0,0-.5c-.07-.11-.16-.12-.28,0a1.27,1.27,0,0,0-.31.42C90.43,4.32,90.53,4.58,90.66,4.58ZM93.17,50.4s-.09-.08-.14-.09a.92.92,0,0,0-.52,0,.59.59,0,0,0-.22.25c-.06.14,0,.24.08.31a.66.66,0,0,0,.15,0,2.08,2.08,0,0,1,.47-.24.46.46,0,0,0,.15-.09S93.16,50.44,93.17,50.4Zm9.23.16a.33.33,0,0,0,.28-.15v-.17c0-.23-.1-.29-.32-.27s-.3.07-.27.31S102.19,50.59,102.4,50.56Zm1-5a.51.51,0,0,0,0-.17c0-.16-.13-.19-.25-.13a1.09,1.09,0,0,0-.42.56.31.31,0,0,0,.09.33.29.29,0,0,0,.29-.12A1.14,1.14,0,0,0,103.41,45.61Zm-11.61-.1a1.08,1.08,0,0,0,.18,0c.16,0,.18-.14.09-.26a1,1,0,0,0-.41-.34.37.37,0,0,0-.34,0c-.09.06-.07.17,0,.28A.86.86,0,0,0,91.8,45.51Zm8-36.16a.52.52,0,0,0-.06-.15c-.08-.08-.18,0-.29.06s-.26.35-.11.41a.35.35,0,0,0,.33,0A.27.27,0,0,0,99.8,9.35Zm-6.49,43a.52.52,0,0,0-.19-.28.56.56,0,0,0-.32,0c-.1.07-.09.17,0,.27l.11.13c.09.1.19.16.27.12A.2.2,0,0,0,93.31,52.39ZM93,53.57a.32.32,0,0,0-.39.26c0,.14,0,.25.1.31a.26.26,0,0,0,.3-.07.58.58,0,0,0,.18-.31C93.23,53.65,93.15,53.58,93,53.57Zm10.64,3.29c-.12,0-.5.36-.5.48s.09.1.14.12a.43.43,0,0,0,.33,0,.25.25,0,0,0,.13-.12.45.45,0,0,0,0-.34S103.69,56.9,103.65,56.86ZM88.27,35.34c0-.12,0-.23,0-.34s-.15-.19-.22-.14a.28.28,0,0,0-.11.13c0,.11,0,.22,0,.34s.12.38.24.31A.32.32,0,0,0,88.27,35.34Zm14.06,2.43a.64.64,0,0,0-.13-.1.37.37,0,0,0-.31,0,.5.5,0,0,0-.22.43c0,.13.12.17.22.15S102.34,37.88,102.33,37.77Zm-.16,10.94a1,1,0,0,0,.42-.29.75.75,0,0,0,.09-.15.25.25,0,0,0-.25-.16.36.36,0,0,0-.36.46A.61.61,0,0,0,102.17,48.71ZM103.69,51q.18-.18-.06-.27a.5.5,0,0,0-.34,0,.26.26,0,0,0-.17.27.35.35,0,0,0,.15.31l.16-.07A.75.75,0,0,0,103.69,51ZM104,34.44a.66.66,0,0,0-.29.2.42.42,0,0,0-.13.29.25.25,0,0,0,.31.12.37.37,0,0,0,.27-.18.38.38,0,0,0,0-.33S104,34.47,104,34.44Zm-7.81-9.9c0-.21-.18-.27-.35-.14a.62.62,0,0,0-.21.27c-.06.11,0,.2.13.24a.45.45,0,0,0,.32-.07A.25.25,0,0,0,96.19,24.54Zm2.43-15a.45.45,0,0,0-.13-.11.37.37,0,0,0-.32.06.22.22,0,0,0-.11.29c0,.13.06.22.16.25a.71.71,0,0,0,.14-.1A.51.51,0,0,0,98.62,9.52ZM92.56,26.43a.86.86,0,0,0,0-.17.54.54,0,0,0-.12-.09.19.19,0,0,0-.12.29.42.42,0,0,0,.09.14C92.48,26.63,92.54,26.57,92.56,26.43Zm2.54-.69a.33.33,0,0,0,0-.17c-.07-.16-.16-.17-.23,0a.38.38,0,0,0,0,.16c0,.15.06.21.17.18A.6.6,0,0,0,95.1,25.74Zm5.68-.93.13-.12a.39.39,0,0,0-.06-.32c-.09-.11-.18-.1-.24.06a.33.33,0,0,0,0,.32S100.74,24.79,100.78,24.81ZM90,24.06a.25.25,0,0,0-.29-.15c-.14,0-.2.09-.16.19l.15.08A.28.28,0,0,0,90,24.06Zm1.73,5.87a.28.28,0,0,0,.16-.26.3.3,0,0,0-.15-.28.24.24,0,0,0-.16.26A.31.31,0,0,0,91.7,29.93Zm6.89-1.64a.36.36,0,0,0-.19.25,1,1,0,0,0,0,.17c.07.11.16.16.24.12s.08-.07.12-.1A.43.43,0,0,0,98.59,28.29Zm-6.12.14s0-.09,0-.12a.34.34,0,0,0-.3-.09c-.12.08-.16.16-.09.23a.25.25,0,0,0,.3.07A.6.6,0,0,0,92.47,28.43Zm10.46-2.31a.27.27,0,0,0-.16.25.32.32,0,0,0,.15.27.26.26,0,0,0,.16-.26A.31.31,0,0,0,102.93,26.12ZM91.3,27.64a.3.3,0,0,0-.11.3l.12.13s.1-.05.11-.08a.29.29,0,0,0,0-.32S91.33,27.65,91.3,27.64Zm8.29-15.2a.25.25,0,0,0,.3.15s.12,0,.14-.07,0-.17-.14-.2A.25.25,0,0,0,99.59,12.44Zm-2.87.7s0,.09,0,.11a.28.28,0,0,0,.29.07c.14-.05.17-.13.09-.2a.29.29,0,0,0-.29-.06A1.48,1.48,0,0,1,96.72,13.14Zm.09,6.16-.11-.13a.39.39,0,0,0-.3.09c-.09.07-.07.17.07.22a.27.27,0,0,0,.3-.05S96.8,19.34,96.81,19.3Zm-4.72.36a.27.27,0,0,0-.3-.09.45.45,0,0,0-.13.11s0,.09.09.11a.29.29,0,0,0,.31,0S92.08,19.7,92.09,19.66ZM90.34,47.93a.3.3,0,0,0-.26-.16.31.31,0,0,0-.27.14.27.27,0,0,0,.26.16A.31.31,0,0,0,90.34,47.93Zm15.48,11.12a.23.23,0,0,0-.14.29c0,.14.09.2.19.17a1,1,0,0,0,.07-.15A.3.3,0,0,0,105.82,59.05ZM103,47.16a.32.32,0,0,0-.32-.11s-.09.08-.14.12.05.1.09.12a.31.31,0,0,0,.32,0S102.94,47.2,103,47.16Zm1.46,7.2s-.09,0-.12,0a.26.26,0,0,0-.07.3c.06.15.15.17.22.08a.37.37,0,0,0,.08-.31S104.45,54.4,104.41,54.36ZM91.27,53a.3.3,0,0,0,.25.17.25.25,0,0,0,.27-.14.23.23,0,0,0-.24-.16A.35.35,0,0,0,91.27,53Zm13.82-.43a.26.26,0,0,0-.16.26.34.34,0,0,0,.15.29.23.23,0,0,0,.15-.26.45.45,0,0,0,0-.16A.69.69,0,0,0,105.09,52.54Zm-15.8-3.37a.24.24,0,0,0,.29-.13c0-.1-.09-.15-.22-.17a.26.26,0,0,0-.3.11A.32.32,0,0,0,89.29,49.17ZM91,55.75a.34.34,0,0,0-.17.28.33.33,0,0,0,.16.29.28.28,0,0,0,.17-.27A.35.35,0,0,0,91,55.75Zm13.8-3.88a.45.45,0,0,0-.13-.11.33.33,0,0,0-.17,0c-.15,0-.19.12-.11.2a.39.39,0,0,0,.15.06A.21.21,0,0,0,104.78,51.87ZM92.65,34.75a.86.86,0,0,0-.17,0s-.07.08-.1.12a.23.23,0,0,0,.3.12l.15-.08C92.85,34.83,92.79,34.77,92.65,34.75Zm9.53.25a.35.35,0,0,0,.18-.29.19.19,0,1,0-.34,0A.41.41,0,0,0,102.18,35Zm0-4.14a.42.42,0,0,0,0,.12.36.36,0,0,0,.32.11c.14-.08.17-.17.11-.25a.25.25,0,0,0-.31-.08A.65.65,0,0,0,102.15,30.86Zm1.44,5.43a.26.26,0,0,0,0,.12.26.26,0,0,0,.28.07c.14,0,.17-.14.09-.21a.3.3,0,0,0-.29-.07A.6.6,0,0,0,103.59,36.29ZM89.52,40.41a.31.31,0,0,0,.17-.27.25.25,0,0,0-.15-.27.3.3,0,0,0-.16.26A.3.3,0,0,0,89.52,40.41ZM105,4.49l.12.07,0-.13Zm-1.63,26.09c0-.15-.12-.15-.2,0l.09.1ZM98.2,32.82c.14,0,.15-.12,0-.2l-.1.1Zm4.72.86-.12.1c.07.17.14.17.23,0ZM91,47.29c.15,0,.15-.11,0-.18l-.1.08Zm.75,1.83.12-.11-.12-.11a.27.27,0,0,0-.11.05.11.11,0,0,0,0,.11S91.68,49.1,91.72,49.12ZM101,5.22l.13.08,0-.13Zm-9.67,48.6.13-.11-.11-.12-.13.1Zm-3.87-2.26c0-.14-.1-.14-.19,0l.09.11Zm.18-9.8.12.07,0-.12Zm5.53-1.34c.15-.05.16-.12,0-.2l-.12.09Zm8.68,4.85a.52.52,0,0,0-.11.1c0,.15.12.15.21,0Zm1.92,1.55-.11-.12-.12.11a.26.26,0,0,0,0,.12.13.13,0,0,0,.12,0S103.74,46.86,103.76,46.82Zm-1.11-3.22c-.05-.14-.11-.15-.19,0l.08.1Zm1-37.39c-.14,0-.15.11,0,.2l.12-.1A.94.94,0,0,0,103.66,6.21ZM92.44,44.57l-.11.08c0,.15.12.16.2,0Zm.44-23.76-.09-.11-.12.09.09.11ZM91.11,9.6c-.07-.18-.15-.18-.25,0l.12.13Zm10,1.33-.07.11.13,0Zm-7.51,3.36c0-.14-.11-.14-.2,0l.09.11Zm4.23.83c.18-.07.19-.15,0-.24l-.13.11Zm-1.08.72c.16-.06.16-.13,0-.22l-.11.11ZM104,29.21l.12-.1L104,29l-.11.1Zm-13,.12c-.17.07-.18.15,0,.25l.13-.12Zm6.23-.93c0-.13-.12-.14-.21,0l.1.11Zm6.9,0-.11-.12-.13.11s0,.09.06.11a.14.14,0,0,0,.11,0S104.1,28.41,104.12,28.37Zm-5.78-5.06-.11-.12c-.18.07-.18.15,0,.24Zm-8-14.16-.1-.06-.12.11c.07.13.15.16.22.06S90.34,9.19,90.34,9.15ZM90,22.53l-.11-.06-.12.12c.07.13.16.16.23.06S90,22.57,90,22.53Zm6.78.15.09-.11-.14,0Zm5.55,3.54c-.06-.16-.14-.17-.23,0l.11.11ZM107,.89,106.87.8l0,.14Zm-1.79.37-.1-.11c-.16.06-.16.12,0,.2ZM94.33,3.78l-.09-.1c-.15,0-.15.12,0,.19ZM91.82,56.61l-.11-.13a.69.69,0,0,1-.13.11l.11.12Zm11.85-2.43.11-.11-.1-.1s-.09,0-.11.05a.12.12,0,0,0,0,.1S103.63,54.16,103.67,54.18Zm2.5,0,.08-.11-.13,0Zm.84,3.18c-.06-.15-.13-.15-.21,0l.1.11Zm-1.08,1.08-.11-.12-.12.11.1.11Z"/><path class="cls-1" d="M6.5,2.5a1.17,1.17,0,0,1,.32.15c.25.15.3.14.41-.06.21-.43.23-.43.67-.45h.36A.72.72,0,0,0,8.6,2a1.41,1.41,0,0,1,.67-.23,1.46,1.46,0,0,0,.5-.2,1.17,1.17,0,0,1,.52-.12h1.08a2,2,0,0,1,1.05.21c.06,0,.12,0,.16,0,.25-.16.45,0,.65.11.72,0,1.44,0,2.16,0a.74.74,0,0,1,.49.2,4.61,4.61,0,0,0,.4.37.23.23,0,0,0,.32,0,1.52,1.52,0,0,0,.26-.25c.25-.32.36-.25.57-.06a1.18,1.18,0,0,1,.22.28c-.12.15-.31.17-.46.26a.27.27,0,0,0-.13.13.38.38,0,0,0,0,.33c.06.13.17.14.29,0A.51.51,0,0,1,17.51,3c.1,0,.18,0,.19.2s.05.6.05.9c0,.78,0,1.56,0,2.35a.63.63,0,0,1-.25.46l-.13.12c-.22.2-.3.32-.24.42a.34.34,0,0,0,.31.15.34.34,0,0,1,.23.42.71.71,0,0,1-.08.15,4,4,0,0,1-1,1,.82.82,0,0,1-.5.15l-2.17,0a1.14,1.14,0,0,1-.52-.13,1.16,1.16,0,0,0-.51-.15c-.55,0-1.09-.05-1.63,0h-.9c-.28,0-.28,0-.67.21l-.33.15a1.42,1.42,0,0,0-.54.46c0,.05-.09.1-.09.15a5.06,5.06,0,0,0,0,.55c0,1,0,2,0,3.07a1,1,0,0,1-.16.51.65.65,0,0,0,0,.67,1.22,1.22,0,0,1,.07.17c0,.11-.08.22-.13.33l-.06.17c0,2.11,0,2.69,0,3.61,0,.06,0,.12,0,.18a2.59,2.59,0,0,1,.33.64,3.12,3.12,0,0,0,.23.49.48.48,0,0,1,.05.17C9,21.29,9,22,9,22.74a.56.56,0,0,0,.13.32,1.53,1.53,0,0,0,.56.45l.17.07a.31.31,0,0,1,.17.29c0,.06,0,.13,0,.17a6.06,6.06,0,0,1-.47.54,1.29,1.29,0,0,0-.09.16c0,.11.11.16.25.17a.42.42,0,0,0,.33-.13,1.42,1.42,0,0,0,.42-.57c.09-.27.32-.33.56-.37a1.08,1.08,0,0,1,.18,0,1.27,1.27,0,0,0,.69-.15,2,2,0,0,1,.33-.15,1.05,1.05,0,0,0,.32-.15c.29-.22.64-.33.94-.53a.45.45,0,0,1,.5,0,1.67,1.67,0,0,0,.46.28c.26.08.27.09.37.35s.17.31.24.48a.54.54,0,0,1,0,.51l-.08.16a.87.87,0,0,0-.16.68,3.26,3.26,0,0,1,0,.54.94.94,0,0,0,.15.52,1.26,1.26,0,0,1,0,1,.44.44,0,0,0,0,.49,1.68,1.68,0,0,1,.14.52.79.79,0,0,0,.09.35,2.4,2.4,0,0,1,.31,1.39,1,1,0,0,1-.26.65,6.14,6.14,0,0,1-.52.5.65.65,0,0,1-.33.14,3.47,3.47,0,0,1-.72,0c-1.14,0-2.29,0-3.43,0a1.35,1.35,0,0,0-.68.2l-.17.08a4.76,4.76,0,0,0-.52.1.4.4,0,0,0-.25.24,1.42,1.42,0,0,0,0,.36c0,.84,0,1.68,0,2.53,0,.18,0,.36,0,.53s-.1.23-.16.34a.69.69,0,0,0-.09.34c0,.54,0,1.08,0,1.63,0,.15,0,.15.17.5a1.34,1.34,0,0,1,.17.51,1.31,1.31,0,0,0,.15.51c.12.24.11.25,0,.5a.79.79,0,0,0-.08.16,4.45,4.45,0,0,0-.11,1.26c0,.18,0,.36,0,.54a.71.71,0,0,1-.07.35c-.15.26-.24.55-.4.81s-.12.3,0,.47.21.56.37.82a.57.57,0,0,1,.1.34c0,.3,0,.6,0,.9,0,1.27,0,2.53,0,3.8,0,.78,0,1.56,0,2.34a4.21,4.21,0,0,0,0,.72.91.91,0,0,0,.11.34.49.49,0,0,1,.1.33,3.4,3.4,0,0,1-.12.34,1.92,1.92,0,0,1,.29,1,1.52,1.52,0,0,0,.19.69.69.69,0,0,1,.08.35c0,.12,0,.24,0,.33a3.17,3.17,0,0,1-.16.36,1.54,1.54,0,0,0-.14.52c0,.48,0,1,0,1.44a1.13,1.13,0,0,0,.16.51,1.36,1.36,0,0,1,.14.33,1,1,0,0,0,.13.33,1.52,1.52,0,0,1,.23,1,.84.84,0,0,1-.21.48,3.08,3.08,0,0,1-.24.27c-.18.22-.18.22-.25.65a1.25,1.25,0,0,1-.29.64l-.12.14-.39.38a1.6,1.6,0,0,1-.6.39,2,2,0,0,0-.46.28,4.8,4.8,0,0,1-.56.45,2.49,2.49,0,0,0-.74.52c-.55.46-1,1-1.58,1.48a.92.92,0,0,1-.3.18.94.94,0,0,0-.31.18L2.51,67.46a.63.63,0,0,1-.32.15,2.18,2.18,0,0,1-.72,0,.5.5,0,0,1-.41-.51,1.09,1.09,0,0,1,0-.18c0-1.38,0-2.77.05-4.15,0-.55,0-1.09,0-1.63,0-.78,0-1.57,0-2.35a1.39,1.39,0,0,1,.18-.69s0-.11.07-.17c0-.54.05-1.08.05-1.62,0-1.51,0-3,.05-4.52,0-.18,0-.36,0-.53a2.67,2.67,0,0,1,.15-.34.7.7,0,0,0,.1-.34c0-.66.07-1.33,0-2a.88.88,0,0,0-.15-.51,1,1,0,0,1-.17-.5,5.67,5.67,0,0,0-.1-.72c0-.11-.11-.21-.15-.33a.22.22,0,0,1,0-.16,1.89,1.89,0,0,0,.23-.68,1.06,1.06,0,0,1,.09-.35A3.24,3.24,0,0,0,1.73,45a.94.94,0,0,0,0-.7,3,3,0,0,0-.23-.48l-.06-.36a1.16,1.16,0,0,1,0-.18A3.18,3.18,0,0,0,1.26,43a1,1,0,0,1-.11-.52c0-.24,0-.48,0-.72a1.14,1.14,0,0,1,.12-.52,1.35,1.35,0,0,0,.15-.52c0-1.56.07-3.13.06-4.7,0-.48,0-1,0-1.44a1.47,1.47,0,0,1,.17-.69c0-.05.05-.11.09-.19,0-.82,0-1.66,0-2.51,0-1.44,0-2.89,0-4.33a.7.7,0,0,0-.09-.35,3.07,3.07,0,0,1-.17-.31,1.73,1.73,0,0,1,0-1.06,2.19,2.19,0,0,0,.23-.49,5,5,0,0,0,.06-.54,1.1,1.1,0,0,0,0-.18l0-.18A3.13,3.13,0,0,1,2,23.42a1,1,0,0,0,.09-.53.62.62,0,0,0-.08-.35,2.15,2.15,0,0,1-.19-.5,1,1,0,0,1,0-.53c.05-.11.1-.22.16-.33A.29.29,0,0,0,1.82,21a.55.55,0,0,1-.36-.56c0-.24,0-.49,0-.73s0-.48,0-.72a1,1,0,0,1,.15-.51,1.5,1.5,0,0,0,.18-.5,4.1,4.1,0,0,0,0-1.26l0-.18c-.06-.11-.11-.21-.16-.32a1,1,0,0,1,0-.87,4.31,4.31,0,0,0,.22-.49A1.67,1.67,0,0,1,2,14.33a.61.61,0,0,0,.1-.34c0-.73,0-1.45,0-2.17a1.08,1.08,0,0,0,0-.36A2.48,2.48,0,0,0,2,11.14a.83.83,0,0,1-.1-.34,5.42,5.42,0,0,1,0-.9c0-.6,0-1.21,0-1.81a1.05,1.05,0,0,0-.16-.51,1.77,1.77,0,0,1-.23-.68,1.54,1.54,0,0,0-.05-.17,1.19,1.19,0,0,0-.09-.15c-.14-.2-.19-.45-.32-.65S.69,5.54.55,5.35A1.23,1.23,0,0,1,.38,5a3.1,3.1,0,0,0-.26-.47A1,1,0,0,1,0,4c0-.24,0-.48,0-.72a1.1,1.1,0,0,1,0-.18,4.77,4.77,0,0,0,.36-.62c.08-.26.12-.27.37-.14a.48.48,0,0,0,.16.08.32.32,0,0,0,.33,0c.08-.07.05-.18,0-.31A.38.38,0,0,1,1.19,2c.05,0,.1-.07.16-.08.9,0,1.8,0,2.69,0A2.83,2.83,0,0,1,4.39,2a.85.85,0,0,0,.34.11c.48,0,1,0,1.44,0a.33.33,0,0,1,.16.07.55.55,0,0,1,.2.29.27.27,0,0,0-.28.15l.09.1A.29.29,0,0,0,6.5,2.5Zm3.61,1.12A.27.27,0,0,0,10,3.33l-.1.11a.24.24,0,0,0,.29.14,2,2,0,0,0,0,.35.31.31,0,0,0,.17.28.28.28,0,0,0,.14-.28.38.38,0,0,0,0-.16A.32.32,0,0,0,10.11,3.62Zm-5.4,6.51a.56.56,0,0,0-.34,0,.48.48,0,0,0-.17.05.34.34,0,0,0-.12.12.46.46,0,0,0,0,.33c0,.13.16.15.28.15s.3-.08.35-.32a.65.65,0,0,0,0-.34A.29.29,0,0,0,5,9.94l-.11-.09A.23.23,0,0,0,4.71,10.13ZM4.36,57.88c-.06,0-.13,0-.17,0a5.8,5.8,0,0,1-.78.41c-.11,0-.14.16-.13.29l-.33,0H2.79a.32.32,0,0,0-.13.1c-.06.07,0,.15.11.22a.48.48,0,0,0,.31-.08.4.4,0,0,0,.16-.28c.21,0,.43,0,.65,0a.49.49,0,0,0,.44-.41,1.74,1.74,0,0,0,0-.32.35.35,0,0,0,.32-.11A2.18,2.18,0,0,0,5,57.32a.38.38,0,0,0-.11-.11.38.38,0,0,0-.33,0,.3.3,0,0,0-.16.3C4.37,57.65,4.36,57.77,4.36,57.88Zm1-54.71a.82.82,0,0,0,0-.35.33.33,0,0,0-.24-.23.25.25,0,0,0-.17,0c-.17,0-.19.13-.1.26s.11.23,0,.29a.82.82,0,0,1-.33.13c-.2,0-.22.22-.08.38a1.49,1.49,0,0,0,.28.23.23.23,0,0,0,.31-.06A1.23,1.23,0,0,0,5.41,3.17Zm11.2,2.11a1.47,1.47,0,0,0,.09.61.33.33,0,0,0,.13.13.42.42,0,0,0,.33,0,.33.33,0,0,0,.19-.29A1,1,0,0,0,17,4.82a.61.61,0,0,0-.16-.09.39.39,0,0,0-.18.26A1.57,1.57,0,0,0,16.61,5.28ZM6.4,9.21a.32.32,0,0,0-.29-.15.42.42,0,0,0-.31.12,2.85,2.85,0,0,1-.23.26c-.12.11-.11.2,0,.26a.33.33,0,0,0,.32,0A1.3,1.3,0,0,0,6.4,9.21Zm.87,8.57c-.2-.05-.28,0-.33.26s0,.3.26.33.3-.05.33-.27S7.49,17.81,7.27,17.78ZM8.62,2.86a.34.34,0,0,0-.33-.31A.26.26,0,0,0,8,2.69a.69.69,0,0,0,.07.15,1.07,1.07,0,0,0,.25.22c.12.1.21.1.26,0A.86.86,0,0,0,8.62,2.86Zm-1.13.56a1.06,1.06,0,0,0-.12-.1.33.33,0,0,0-.32,0,.28.28,0,0,0-.16.28A.32.32,0,0,0,7,3.91l.16-.08A.93.93,0,0,0,7.49,3.42ZM4,31.78a.32.32,0,0,0,.26-.18.44.44,0,0,0,0-.32.29.29,0,0,0-.11-.11c-.11,0-.44.36-.43.49A.29.29,0,0,0,4,31.78ZM7.65,57a.27.27,0,0,0,.28.13c.05,0,.12,0,.16,0a.49.49,0,0,0,.19-.26c.05-.13,0-.23-.07-.3s-.17,0-.27.07A1.28,1.28,0,0,0,7.65,57ZM5.38,34.72s0-.11,0-.15a.33.33,0,0,0-.25-.18.25.25,0,0,0-.29.09.33.33,0,0,0,.12.27l.12.12.14.09A.25.25,0,0,0,5.38,34.72ZM8.14,9.46c-.14,0-.45.37-.41.5a.28.28,0,0,0,.13.11.38.38,0,0,0,.43-.18.38.38,0,0,0,0-.33S8.18,9.5,8.14,9.46ZM6.45,24.9a.24.24,0,0,0,.28-.11c0-.09-.07-.13-.19-.17a.21.21,0,0,0-.28.1C6.27,24.81,6.33,24.87,6.45,24.9ZM13.7,29s0-.12,0-.16a.23.23,0,0,0-.11-.13c-.08,0-.17,0-.2.14a.25.25,0,0,0,.1.3C13.58,29.17,13.66,29.1,13.7,29Zm-9-1.16q0-.21-.18-.21a.24.24,0,0,0-.13.3c0,.13.09.21.19.22A.25.25,0,0,0,4.68,27.81ZM3.81,13.08a.33.33,0,0,0-.17.28.33.33,0,0,0,.16.29A.26.26,0,0,0,4,13.38.39.39,0,0,0,3.81,13.08Zm3.73,1.57a.3.3,0,0,0-.28-.17.28.28,0,0,0-.28.16.29.29,0,0,0,.28.16A.32.32,0,0,0,7.54,14.65ZM3.85,20.4s-.07-.09-.13-.11a.25.25,0,0,0-.17,0c-.16,0-.2.12-.12.21a.28.28,0,0,0,.16.06A.2.2,0,0,0,3.85,20.4ZM5.69,58.05a.27.27,0,0,0-.26-.15.34.34,0,0,0-.28.13.3.3,0,0,0,.25.15A.37.37,0,0,0,5.69,58.05Zm.12-1.94c-.06,0-.12,0-.16,0s-.06.07-.09.11a.21.21,0,0,0,.29.11L6,56.28C6,56.18,6,56.12,5.81,56.11Zm4-47.63a.25.25,0,0,0,.25.16.3.3,0,0,0,.28-.14.23.23,0,0,0-.25-.16A.37.37,0,0,0,9.85,8.48ZM4.18,35.54l-.07.11h.14Zm-1-28.12c-.05-.14-.11-.15-.2,0l.09.11Zm.62,25c.16-.06.16-.13,0-.21l-.11.1Zm1.45-28-.09.1.13,0Zm5,.92.13-.12-.11-.13-.13.11Zm-5,16.08-.08.12h.14ZM2.72,10.17c-.16.07-.17.16,0,.25l.13-.12ZM6,12.56,6,12.44H5.9Zm3.9,16.53.12.07L10,29Zm1.19-.8-.1.08c.05.15.11.15.19,0Zm-5.8-5.8-.11.08c.06.15.13.16.21,0Zm7.57,3.27-.06.1.09.11c.13-.06.15-.13.07-.19S12.84,25.77,12.81,25.76Zm-1-1c0-.15-.11-.15-.19,0l.09.11ZM3.36,3.05l.11.08,0-.13Zm4.8,1-.11.09c0,.16.12.16.19,0ZM2,63.92l.12-.08-.1-.1-.1.08A.39.39,0,0,0,2,63.92Zm1.79,1.82c.16,0,.17-.12,0-.2l-.12.09Z"/><path class="cls-1" d="M80.64,44.86A.74.74,0,0,1,81,45a.85.85,0,0,1,.25.25.26.26,0,0,1,0,.33,3,3,0,0,0-.21.49c-.1.22-.32.35-.46.54s-.13.26,0,.45l.12.13a.55.55,0,0,0,.49.13.48.48,0,0,0,.19-.29.48.48,0,0,1,.05-.17c.09-.15.2-.3.31-.46s.05-.34.08-.51a.91.91,0,0,1,.26-.46c.18-.14.3-.09.35.14a.38.38,0,0,1,0,.18,2.41,2.41,0,0,1-.07.71,4.16,4.16,0,0,1-.22.48,1.19,1.19,0,0,1-.51.71.6.6,0,0,1-.15.09c-.37,0-.47.32-.59.59a.83.83,0,0,1-.21.28c-.11.1-.21.12-.29,0a.34.34,0,0,1-.09-.15,2.11,2.11,0,0,0-.06-.55l-.17-.29a1,1,0,0,1-.16-.68,1.13,1.13,0,0,0-.17-.68,1.19,1.19,0,0,1-.08-.16c.08-.22.26-.38.31-.62s.08-.23.35-.11.3.06.33-.24c0-.12,0-.24,0-.35Z"/><path class="cls-1" d="M81.38,51h.52c.21.11.36.31.59.38s.31.09.36.33a2.91,2.91,0,0,0,.21.48.57.57,0,0,1,0,.51,3.39,3.39,0,0,0-.23.47l0,0a1.87,1.87,0,0,0-.32.15,1.23,1.23,0,0,1-.68.19,2,2,0,0,1-.54,0,1.3,1.3,0,0,1-.15-.1c0-.15.19-.28.09-.47l-.12-.09-.54,0a.28.28,0,0,1-.14-.1c-.06-.07,0-.16.14-.2a.67.67,0,0,0,.31-.17.57.57,0,0,0-.09-.31s0-.1,0-.15.3-.37.46-.55a.86.86,0,0,0,.15-.32Z"/><path class="cls-1" d="M82.1,54.59a.34.34,0,0,0,.38-.28.57.57,0,0,1,.15-.31c.2,0,.2.23.25.38a1.19,1.19,0,0,0,.09.15A.41.41,0,0,1,83,55a1,1,0,0,0-.06.16c.08.24.29.37.45.54s.1.21,0,.31a2,2,0,0,1-.27.24.45.45,0,0,1-.5,0l-.31-.17-.32.15a.44.44,0,0,1-.5,0,1.81,1.81,0,0,0-.84-.24.22.22,0,0,1-.23-.18.83.83,0,0,1,.11-.15l.4-.34a1.19,1.19,0,0,0,.16-.08.45.45,0,0,0,.27-.42,2.93,2.93,0,0,1,0-.37c.11-.12.22-.25.35-.37a.78.78,0,0,1,.15-.1c.1,0,.15.1.17.24s0,.24.06.35a.75.75,0,0,0-.16.05.29.29,0,0,0-.12.1.43.43,0,0,0,0,.46.32.32,0,0,0,.29.1.22.22,0,0,0,.16.28l.11-.11a.22.22,0,0,0-.27-.17,1.62,1.62,0,0,0,0-.44A1.51,1.51,0,0,1,82.1,54.59Z"/><path class="cls-1" d="M77,52.82l.54,0a1.37,1.37,0,0,1,1,.29.59.59,0,0,0,.33.11.55.55,0,0,1,.17,0c.17.06.29.2.48.22s.32-.12.48-.2a.44.44,0,0,1,.34-.06c.16,0,.2.13.12.24s-.13.22-.09.31a.66.66,0,0,0,.23.27,3,3,0,0,1,.26.24.39.39,0,0,1,.12.32.23.23,0,0,1-.17.28.56.56,0,0,1-.34,0,6.14,6.14,0,0,1-.94-.82.45.45,0,0,0-.32-.14.4.4,0,0,0-.33.1,3.06,3.06,0,0,1-.29.21c-.35,0-.35,0-.48-.4a.71.71,0,0,0-.31-.42,1.64,1.64,0,0,0-.48-.23.39.39,0,0,1-.29-.39Z"/><path class="cls-1" d="M93.72,38.36a5.77,5.77,0,0,0,0-.72.66.66,0,0,0-.12-.33.84.84,0,0,1-.16-.29.86.86,0,0,0,.1-.16,1.21,1.21,0,0,0,.15-.5,1,1,0,0,1,.17-.5,3,3,0,0,0,.18-.3c0-.18,0-.36,0-.54a.22.22,0,0,1,.21-.19s.1.08.11.14a2,2,0,0,1,0,.35c0,.41,0,.83,0,1.25s0,.83,0,1.25-.08.51-.37.48a2.08,2.08,0,0,0-.35,0Z"/><path class="cls-1" d="M79.94,49.9l0,.35c0,.25,0,.27.3.38a.92.92,0,0,1,.31.16c-.09.22-.23.41-.31.64a.4.4,0,0,1-.42.24.29.29,0,0,1-.25-.2,1.06,1.06,0,0,1,0-.35c0-.3,0-.59.07-.89a.43.43,0,0,1,0-.16.26.26,0,0,1,.28-.16Z"/><path class="cls-1" d="M82.69,27.4a.72.72,0,0,1-.22.25.24.24,0,0,1-.32,0,2.08,2.08,0,0,0-.49-.19.21.21,0,0,1-.09-.38,1.19,1.19,0,0,1,.43-.3.33.33,0,0,1,.32.05,1.48,1.48,0,0,1,.37.38S82.69,27.33,82.69,27.4Z"/><path class="cls-1" d="M79.05,55.6a.28.28,0,0,1-.16-.27,1.49,1.49,0,0,1,0-.52c0-.13.16-.16.3-.14a.76.76,0,0,1,.57.38c.08.11,0,.2-.1.27A1.65,1.65,0,0,0,79.05,55.6Z"/><path class="cls-1" d="M81.93,49.26a2.06,2.06,0,0,0,.26.25c.4.3.26.74-.19,1-.08,0-.16,0-.17-.19s0-.36,0-.54,0-.12,0-.18A.59.59,0,0,1,81.93,49.26Z"/><path class="cls-1" d="M88.29,46.26l-.87,0a.36.36,0,0,1-.19-.26.3.3,0,0,1,.09-.32.67.67,0,0,1,.15.06.77.77,0,0,0,.29.14l.31-.16s.1.07.11.11a1.51,1.51,0,0,1,.06.52Z"/><path class="cls-1" d="M99.85,45.2a.34.34,0,0,1-.27-.15.47.47,0,0,1-.08-.31.86.86,0,0,1,0-.16,3.87,3.87,0,0,1,0-.49.36.36,0,0,1,.31-.32l0,0a1.51,1.51,0,0,0,.05.52,1.83,1.83,0,0,0,.18.3.7.7,0,0,1,.13.32l0-.06a.49.49,0,0,0-.39.4Z"/><path class="cls-1" d="M87.9,44.12a1.15,1.15,0,0,1,0,.52.51.51,0,0,1-.09.16,1,1,0,0,1-.41.32c-.09,0-.18-.43-.15-.66a.37.37,0,0,1,.34-.34h.35Z"/><path class="cls-1" d="M90.82,42.29a.61.61,0,0,1-.32-.13.92.92,0,0,0-.48-.22.37.37,0,0,1-.29-.38l0,0,.35,0a.71.71,0,0,0,.31-.13c.31-.19.45-.13.43.2s0,.46,0,.7Z"/><path class="cls-1" d="M87.9,26.76a1.73,1.73,0,0,1,.32,0,.36.36,0,0,1,.29.11.43.43,0,0,1,.1.29l0,0a1.8,1.8,0,0,0-.46.23c-.19.11-.4.13-.48,0a.25.25,0,0,1,.05-.29l.09-.15.06-.16Z"/><path class="cls-1" d="M99.86,50.65a.52.52,0,0,1,.11-.32,1.15,1.15,0,0,0,.25-.46.39.39,0,0,1,.36-.32l0,0a8.37,8.37,0,0,1,0,1.12l0,0a4,4,0,0,1-.77,0Z"/><path class="cls-1" d="M94.63,31.2a.57.57,0,0,1,0,.14.38.38,0,0,1-.33.05.25.25,0,0,1-.15-.29c0-.14.06-.22.16-.25l.16.07A.51.51,0,0,1,94.63,31.2Z"/><path class="cls-1" d="M89.28,28.6c0,.24-.14.27-.32.12l-.13-.13a.35.35,0,0,1-.06-.16c0-.12.1-.16.23-.16a.26.26,0,0,1,.29.16A.34.34,0,0,1,89.28,28.6Z"/><path class="cls-1" d="M70.42,24.44a.67.67,0,0,1-.14.09.28.28,0,0,1-.3-.06c-.07-.07,0-.16.09-.21a.3.3,0,0,1,.3.07A.22.22,0,0,1,70.42,24.44Z"/><path class="cls-1" d="M75.27,24.56a.29.29,0,0,1-.28-.15.85.85,0,0,1,0-.17.32.32,0,0,1,.12-.29c0,.05.09.09.09.14s0,.35.06.52Z"/><path class="cls-1" d="M67.31,28.58a1.62,1.62,0,0,1,0-.49c0-.05.07-.08.11-.12a.24.24,0,0,1,.12.27.75.75,0,0,1,0,.16.26.26,0,0,1-.26.15Z"/><path class="cls-1" d="M83.22,3.63a1.87,1.87,0,0,1,0-.53A.67.67,0,0,1,83.38,3a.29.29,0,0,1,.12.3.32.32,0,0,1,0,.16.31.31,0,0,1-.28.17Z"/><path class="cls-1" d="M101.15,15.33s0,.1-.05.12a.31.31,0,0,1-.31.05c-.15-.06-.17-.15-.07-.23a.36.36,0,0,1,.32-.06A.43.43,0,0,1,101.15,15.33Z"/><path class="cls-1" d="M77.25,54.37a.32.32,0,0,1,.12.3s-.05.08-.07.12-.19,0-.2-.14A.28.28,0,0,1,77.25,54.37Z"/><path class="cls-1" d="M77.83,55.15a.37.37,0,0,1,.29-.13.25.25,0,0,1,.25.15.22.22,0,0,1-.27.14A.38.38,0,0,1,77.83,55.15Z"/><path class="cls-1" d="M80,49.91a.33.33,0,0,1,.11-.28.35.35,0,0,1,.31-.06c.12,0,.19.1.17.19a.22.22,0,0,1-.12.11.37.37,0,0,1-.15,0H80Z"/><path class="cls-1" d="M70.92,32.16a.34.34,0,0,1-.26-.15.46.46,0,0,1-.08-.3.24.24,0,0,1,.18-.22.39.39,0,0,1,.15,0l0,0a2.77,2.77,0,0,1,0,.76Z"/><path class="cls-1" d="M69.26,8.56a.28.28,0,0,1-.13-.27.25.25,0,0,1,.16-.24.29.29,0,0,1,.14.27A.24.24,0,0,1,69.26,8.56Z"/><path class="cls-1" d="M87.93,40.16c0-.13,0-.26,0-.39l0,0a.23.23,0,0,1,.28.16.28.28,0,0,1-.29.17Z"/><path class="cls-1" d="M80.67,31.82c0-.12,0-.22.12-.26s.16,0,.13.13-.13.14-.25.13Z"/><path class="cls-1" d="M89.74,33.6a.26.26,0,0,1-.26-.09c-.07-.1,0-.16.09-.11a.29.29,0,0,1,.13.25Z"/><path class="cls-1" d="M82.83,53.17a.21.21,0,0,1,.25.17l-.09.1a.3.3,0,0,1-.14-.29Z"/><path class="cls-1" d="M81.42,51a.25.25,0,0,1-.3-.13l.09-.12a.28.28,0,0,1,.17.29Z"/><path class="cls-1" d="M105.56,41.07l-.11.1-.09-.13C105.45,40.88,105.51,40.89,105.56,41.07Z"/><path class="cls-1" d="M88.64,17.73a.23.23,0,0,1,.15-.28l.1.1a.23.23,0,0,1-.28.15Z"/><path class="cls-1" d="M101.27,12.62a.22.22,0,0,1-.16.29.24.24,0,0,1-.16-.29l0,.05a1.34,1.34,0,0,0,.4,0Z"/><polygon class="cls-1" points="89.18 16.71 89.23 16.85 89.1 16.83 89.18 16.71"/><polygon class="cls-1" points="100.36 17.24 100.32 17.13 100.43 17.15 100.36 17.24"/><path class="cls-1" d="M89,27.5a.23.23,0,0,1,.28.14l-.1.11a.26.26,0,0,1-.14-.29Z"/><path class="cls-1" d="M87.91,26.75a.22.22,0,0,1-.25-.15l.09-.09a.22.22,0,0,1,.15.25Z"/><path class="cls-1" d="M88.61,27.13a.35.35,0,0,1,.26.11.32.32,0,0,1,.1.26l0,0a.39.39,0,0,1-.27-.1.3.3,0,0,1-.09-.26Z"/><path class="cls-1" d="M82.11,24.57a.19.19,0,1,1-.34,0l0,.05a1.34,1.34,0,0,1,.4,0Z"/><path class="cls-1" d="M76.31,2.86a.22.22,0,0,1-.13.27l-.11-.08a.29.29,0,0,1,.28-.16Z"/><path class="cls-1" d="M87.93,54.23l-.14,0a.36.36,0,0,1-.23-.32l0,0a.3.3,0,0,1,.33.22.8.8,0,0,1,0,.15Z"/><path class="cls-1" d="M86.08,55a.25.25,0,0,1-.11.29c-.1,0-.16,0-.13-.15s.15-.14.28-.1Z"/><path class="cls-1" d="M89.34,55.35a.24.24,0,0,1,.26.15l-.1.09a.25.25,0,0,1-.13-.27Z"/><path class="cls-1" d="M89.37,55.32a.26.26,0,0,1-.28-.08A.3.3,0,0,1,89,55l0,0a.3.3,0,0,1,.28.08.3.3,0,0,1,.09.28Z"/><path class="cls-1" d="M88.62,52.44c.12,0,.22,0,.25.12s0,.18-.12.13-.13-.14-.12-.26Z"/><path class="cls-1" d="M99.83,36.51a1.35,1.35,0,0,0,.4,0,.25.25,0,0,1-.14.24.17.17,0,0,1-.12,0A.23.23,0,0,1,99.83,36.51Z"/></g></g></svg>